<?xml version="1.0" encoding="utf-8"?><svg width="3386" height="2322" viewBox="0 0 3386 2322" xmlns="http://www.w3.org/2000/svg" xmlns:xlink="http://www.w3.org/1999/xlink"><svg id="E-live-chat" viewBox="0 0 35 35" width="35" height="35" xmlns="http://www.w3.org/2000/svg"><style>.aast0{fill:#231f20}</style><path class="aast0" d="M0 0v35h35V0H0zm24 29.6H11.2V5.8h12.5v4h-7.9v5.5h6v4h-6v6.3H24v4z"/></svg><svg id="amex" width="46" height="28" viewBox="0 0 46 28" x="35" y="35" xmlns="http://www.w3.org/2000/svg"><style>.abst0{fill:#017cc2}.abst1{fill:#fff}</style><path class="abst0" d="M0 0h46v28H0z"/><path class="abst1" d="M4.1 9.8l-.8-2.2-.9 2.2m21.2-.9c-.2.1-.4.2-.6.1h-1.6V7.8H23c.2 0 .4 0 .6.1.2.1.3.3.3.5s-.1.4-.3.5zm11.2.9L34 7.6l-.9 2.1h1.7zM14 12.1h-1.3V7.9l-1.9 4.2H9.6L7.7 7.9v4.2H5.1l-.5-1.2H1.9l-.5 1.2H0l2.3-5.4h1.9l2.2 5.1V6.7h2.1l1.7 3.6 1.6-3.6H14v5.4zm5.2 0h-4.3V6.7h4.3v1.1h-3v1h3v1.1h-3V11h3v1.1zm6.1-3.9c0 .6-.3 1.2-.9 1.4.2.1.5.2.6.5.2.3.3.6.2 1v1.1H24v-.7c.1-.4 0-.7-.2-1-.3-.2-.6-.3-.9-.2h-1.4v1.9h-1.3V6.7h3c.5-.1 1.1 0 1.6.3.3.2.6.7.5 1.2zm2.1 3.9h-1.3V6.7h1.3v5.4zm15.3 0h-1.8l-2.5-4v4h-2.6l-.5-1.2h-2.7l-.5 1.2h-1.5c-.7 0-1.3-.2-1.9-.6-.5-.6-.8-1.3-.7-2-.1-.8.2-1.5.7-2.1.5-.5 1.3-.7 2-.6H32v1.1h-1.2c-.4 0-.7.1-1 .3-.3.3-.4.8-.4 1.2 0 .4.1.9.4 1.3.3.2.6.3.9.3h.6L33 6.7h2l2.2 5.1V6.7h2l2.3 3.7V6.7h1.3l-.1 5.4zM0 13.1h2.2l.5-1.2h1.1l.5 1.2h4.3v-.9l.4.9h2.3l.4-.9v.9h10.8v-2h.2c.1 0 .2 0 .2.3v1.7h5.6v-.5c.6.3 1.4.5 2.1.5H33l.5-1.2h1.1l.5 1.2h4.5V12l.7 1.1h3.6V5.7h-3.6v.9l-.5-.9h-3.7v.9l-.5-.9h-5c-.7 0-1.5.1-2.2.4v-.4H25v.4c-.4-.3-.9-.5-1.5-.4H11l-.8 1.9-.9-1.9h-4v.9l-.4-.9H1.6L0 9.2v3.9zM46 17.1h-2.4c-.2 0-.4 0-.5.1-.1.1-.2.2-.2.4s.1.3.3.4c.2 0 .3.1.5.1h.7c.5-.1 1.1.1 1.5.4l.1.1m0 2c-.4.5-1.1.8-1.8.7h-2.5v-1.1h2.5c.2 0 .4 0 .5-.1.1-.1.2-.2.2-.3 0-.1-.1-.3-.2-.4-.1-.1-.3-.1-.5-.1-1.2 0-2.7 0-2.7-1.7 0-.9.7-1.6 1.6-1.6H46v-1.1h-2.4c-.6 0-1.1.1-1.6.4v-.4h-3.5c-.5 0-1.1.1-1.5.4v-.4h-6.3v.4c-.5-.3-1.1-.5-1.7-.4h-4.2v.4c-.5-.3-1.2-.5-1.8-.4h-4.7L17.1 16l-1-1.1h-7v7.5H16l1.1-1.2 1 1.2h4.2v-1.8h.4c.6 0 1.2-.1 1.8-.3v2H28v-1.9h.2c.2 0 .2 0 .2.2v1.7H39c.6 0 1.2-.1 1.8-.5v.5h3.4c.6 0 1.3-.1 1.9-.3l-.1-1.4zm-5.2-2.1c.3.3.4.7.4 1.1 0 1.2-.7 1.7-2 1.7h-2.5v-1.1h2.5c.2 0 .4 0 .5-.1.1-.1.2-.2.2-.3 0-.1-.1-.3-.2-.4-.1-.1-.3-.1-.5-.1-1.2 0-2.7 0-2.7-1.7 0-.9.7-1.6 1.6-1.6H41v1.1h-2.4c-.2 0-.4 0-.5.1-.2.1-.3.4-.1.6l.2.2c.2 0 .3.1.5.1h.7c.5-.1 1 .1 1.4.4zm-11.6-.3c-.2.1-.4.1-.6.1H27v-1.2h1.6c.2 0 .4 0 .6.1.2.1.3.3.3.5 0 .1-.1.3-.3.5zm.8.6c.2.1.5.2.6.4.2.3.3.6.2 1v1.1h-1.3v-.7c.1-.4 0-.7-.2-1-.3-.2-.6-.3-.9-.2H27v2h-1.3V16h3c.5 0 1.1 0 1.6.3.4.2.7.7.7 1.2-.1.5-.5 1.1-1 1.3zm1.6-2.9h4.3V17h-3v1h3v1.1h-3v1.1h3v1.1h-4.3v-5.4zm-8.7 2.5h-1.7V17h1.7c.4-.1.7.2.8.5v.1c0 .4-.3.7-.7.7 0 .1-.1.1-.1.1zm-3 2.4l-2-2.2 2-2.1v4.3zm-5.1-.6h-3.2v-1.1h2.8V18h-2.8v-1h3.2l1.4 1.6-1.4 1.6zm10.3-2.5c0 1.5-1.1 1.8-2.3 1.8h-1.6v1.8h-2.5l-1.6-1.8-1.7 1.8h-5.1v-5.4h5.2l1.6 1.8 1.6-1.8h4.1c1.1 0 2.3.3 2.3 1.8z"/></svg><svg id="app-store-button" data-name="Layer 1" viewBox="0 0 137 44.25" width="137" height="44.25" x="81" y="63" xmlns="http://www.w3.org/2000/svg"><defs><style>.accls-1,.accls-2{fill:none}.accls-1{clip-rule:evenodd}.accls-3{clip-path:url(#acclip-path)}.accls-4{isolation:isolate}.accls-5{clip-path:url(#acclip-path-2)}.accls-6{clip-path:url(#acclip-path-3)}.accls-7{clip-path:url(#acclip-path-5)}.accls-8{clip-path:url(#acclip-path-6)}.accls-9{fill:#fff}.accls-10{clip-path:url(#acclip-path-7)}.accls-11{clip-path:url(#acclip-path-8)}.accls-12{clip-path:url(#acclip-path-9)}.accls-13{clip-path:url(#acclip-path-10)}.accls-14{clip-path:url(#acclip-path-11)}.accls-15{clip-path:url(#acclip-path-12)}.accls-16{clip-path:url(#acclip-path-13)}.accls-17{clip-path:url(#acclip-path-14)}.accls-18{clip-path:url(#acclip-path-15)}.accls-19{clip-path:url(#acclip-path-16)}.accls-20{clip-path:url(#acclip-path-17)}.accls-21{clip-path:url(#acclip-path-18)}.accls-22{clip-path:url(#acclip-path-19)}.accls-23{clip-path:url(#acclip-path-20)}.accls-24{clip-path:url(#acclip-path-21)}.accls-25{clip-path:url(#acclip-path-22)}.accls-26{clip-path:url(#acclip-path-24)}.accls-27{clip-path:url(#acclip-path-26)}.accls-28{clip-path:url(#acclip-path-28)}.accls-29{clip-path:url(#acclip-path-30)}.accls-30{clip-path:url(#acclip-path-32)}.accls-31{clip-path:url(#acclip-path-34)}.accls-32{clip-path:url(#acclip-path-36)}.accls-33{clip-path:url(#acclip-path-38)}</style><clipPath id="acclip-path"><path class="accls-1" d="M68.5 1H136v42.48H1V1h67.5z"/></clipPath><clipPath id="acclip-path-2"><path class="accls-2" d="M1 1h135v43H1z"/></clipPath><clipPath id="acclip-path-3"><path class="accls-1" d="M131.2 43.48H5.73a4.89 4.89 0 0 1-4.73-5V6a4.89 4.89 0 0 1 4.73-5H131.2a5 5 0 0 1 4.8 5v32.45a5 5 0 0 1-4.8 5"/></clipPath><clipPath id="acclip-path-5"><path class="accls-1" d="M135 38.45a4 4 0 0 1-3.83 4.07H5.73a4 4 0 0 1-3.84-4.07V6a4 4 0 0 1 3.84-4.05H131.2A4 4 0 0 1 135 6z"/></clipPath><clipPath id="acclip-path-6"><path class="accls-1" d="M31.13 22a6.19 6.19 0 0 1 2.76-5.17 5.83 5.83 0 0 0-4.68-2.68c-2-.22-3.87 1.25-4.88 1.25s-2.56-1.23-4.23-1.19a6.19 6.19 0 0 0-5.24 3.39c-2.27 4.17-.58 10.29 1.6 13.66 1.09 1.65 2.35 3.49 4 3.42s2.23-1.1 4.19-1.1 2.51 1.1 4.21 1.06 2.84-1.66 3.89-3.32a14 14 0 0 0 1.78-3.85 5.91 5.91 0 0 1-3.4-5.47"/></clipPath><clipPath id="acclip-path-7"><path class="accls-1" d="M27.93 11.94a6.31 6.31 0 0 0 1.3-4.34 5.71 5.71 0 0 0-3.76 2.06 6 6 0 0 0-1.34 4.18 4.7 4.7 0 0 0 3.79-1.9"/></clipPath><clipPath id="acclip-path-8"><path class="accls-1" d="M54.64 34.46h-2.27l-1.24-4.16h-4.32l-1.19 4.15h-2.21l4.28-14.13h2.65zm-3.89-5.89l-1.12-3.69q-.18-.57-.67-2.66-.2.9-.63 2.66l-1.1 3.69z"/></clipPath><clipPath id="acclip-path-9"><path class="accls-1" d="M65.66 29.24a6 6 0 0 1-1.32 4.11 3.77 3.77 0 0 1-2.94 1.34 2.9 2.9 0 0 1-2.73-1.45v5.37H56.5v-11q0-1.63-.08-3.35h1.88l.12 1.62a3.66 3.66 0 0 1 6.07-.4 5.85 5.85 0 0 1 1.14 3.75m-2.17.08a4.39 4.39 0 0 0-.63-2.45 2.18 2.18 0 0 0-3.29-.45 2.61 2.61 0 0 0-.84 1.46 3.14 3.14 0 0 0-.1.69v1.7a2.82 2.82 0 0 0 .64 1.88 2.07 2.07 0 0 0 1.67.77 2.14 2.14 0 0 0 1.88-1 4.54 4.54 0 0 0 .67-2.6"/></clipPath><clipPath id="acclip-path-10"><path class="accls-1" d="M76.7 29.24a6 6 0 0 1-1.32 4.11 3.76 3.76 0 0 1-2.94 1.34 2.89 2.89 0 0 1-2.72-1.45v5.37h-2.18v-11q0-1.63-.08-3.35h1.88l.12 1.62a3.67 3.67 0 0 1 6.07-.4 5.86 5.86 0 0 1 1.13 3.75m-2.17.08a4.38 4.38 0 0 0-.63-2.45 2.17 2.17 0 0 0-3.29-.45 2.61 2.61 0 0 0-.84 1.46 3.25 3.25 0 0 0-.1.69v1.7a2.83 2.83 0 0 0 .64 1.88 2.08 2.08 0 0 0 1.73.76 2.14 2.14 0 0 0 1.88-1 4.54 4.54 0 0 0 .67-2.6"/></clipPath><clipPath id="acclip-path-11"><path class="accls-1" d="M89 30.49a3.88 3.88 0 0 1-1.18 2.94 5 5 0 0 1-3.62 1.24 6.06 6.06 0 0 1-3.45-.88l.49-1.89a5.58 5.58 0 0 0 3.08.9 2.8 2.8 0 0 0 1.88-.58 1.94 1.94 0 0 0 .67-1.54 2 2 0 0 0-.55-1.45 5.06 5.06 0 0 0-1.83-1.09Q81 26.75 81 24.09a3.69 3.69 0 0 1 1.22-2.86 4.65 4.65 0 0 1 3.26-1.11 6.14 6.14 0 0 1 3 .67L88 22.63a5 5 0 0 0-2.55-.63 2.48 2.48 0 0 0-1.76.59 1.73 1.73 0 0 0-.53 1.28 1.77 1.77 0 0 0 .61 1.38 6.82 6.82 0 0 0 1.94 1.09A6.55 6.55 0 0 1 88.23 28a3.74 3.74 0 0 1 .77 2.49"/></clipPath><clipPath id="acclip-path-12"><path class="accls-1" d="M96.09 26h-2.35v4.95q0 1.89 1.25 1.89a3.57 3.57 0 0 0 .95-.11l.06 1.68a4.57 4.57 0 0 1-1.66.25 2.48 2.48 0 0 1-2-.82 4.19 4.19 0 0 1-.71-2.75V26h-1.4v-1.7h1.4v-1.9l2.09-.67v2.54h2.35z"/></clipPath><clipPath id="acclip-path-13"><path class="accls-1" d="M106.69 29.28a5.8 5.8 0 0 1-1.26 3.86 4.38 4.38 0 0 1-3.51 1.55 4.17 4.17 0 0 1-3.37-1.49 5.63 5.63 0 0 1-1.25-3.75 5.75 5.75 0 0 1 1.29-3.88 4.35 4.35 0 0 1 3.49-1.51 4.26 4.26 0 0 1 3.39 1.49 5.56 5.56 0 0 1 1.23 3.73m-2.21.07a4.8 4.8 0 0 0-.57-2.42 2.09 2.09 0 0 0-1.92-1.22 2.12 2.12 0 0 0-2 1.22 4.9 4.9 0 0 0-.57 2.46 4.79 4.79 0 0 0 .57 2.42 2.12 2.12 0 0 0 3.85 0 4.82 4.82 0 0 0 .59-2.44"/></clipPath><clipPath id="acclip-path-14"><path class="accls-1" d="M113.62 26.26a3.5 3.5 0 0 0-.67-.06 2 2 0 0 0-1.74.9 3.55 3.55 0 0 0-.53 2v5.35h-2.13v-7q0-1.76-.08-3.21h1.86l.08 1.95h.06a3.49 3.49 0 0 1 1.07-1.62 2.49 2.49 0 0 1 1.54-.54 3.12 3.12 0 0 1 .53 0z"/></clipPath><clipPath id="acclip-path-15"><path class="accls-1" d="M123.16 28.88a5.63 5.63 0 0 1-.08 1h-6.4a2.82 2.82 0 0 0 3 3 6.71 6.71 0 0 0 2.59-.48l.33 1.57a7.59 7.59 0 0 1-3.22.63 4.51 4.51 0 0 1-3.51-1.39 5.34 5.34 0 0 1-1.27-3.74 6.08 6.08 0 0 1 1.19-3.84 4 4 0 0 1 3.38-1.63 3.51 3.51 0 0 1 3.14 1.63 5.76 5.76 0 0 1 .85 3.25zm-2-.59a3.23 3.23 0 0 0-.41-1.74 1.84 1.84 0 0 0-1.7-.94 2 2 0 0 0-1.7.92 3.5 3.5 0 0 0-.63 1.76h4.44z"/></clipPath><clipPath id="acclip-path-16"><path class="accls-1" d="M50 11.63a3.6 3.6 0 0 1-1 2.82 4 4 0 0 1-2.78.88 12.16 12.16 0 0 1-1.53-.08V8.41a10.67 10.67 0 0 1 1.81-.14 3.73 3.73 0 0 1 2.59.79 3.31 3.31 0 0 1 1 2.57m-1.1 0a2.63 2.63 0 0 0-.61-1.86 2.31 2.31 0 0 0-1.77-.65 4.18 4.18 0 0 0-.84.07v5.19a5.21 5.21 0 0 0 .71 0 2.4 2.4 0 0 0 1.86-.71A3 3 0 0 0 49 11.6"/></clipPath><clipPath id="acclip-path-17"><path class="accls-1" d="M55.91 12.72a2.85 2.85 0 0 1-.62 1.9 2.16 2.16 0 0 1-1.73.76 2 2 0 0 1-1.65-.73 2.77 2.77 0 0 1-.61-1.84 2.82 2.82 0 0 1 .63-1.91 2.14 2.14 0 0 1 1.71-.74 2.1 2.1 0 0 1 1.67.73 2.74 2.74 0 0 1 .6 1.83m-1.09 0a2.37 2.37 0 0 0-.28-1.19 1 1 0 0 0-.94-.6 1 1 0 0 0-1 .6 2.41 2.41 0 0 0-.28 1.21 2.37 2.37 0 0 0 .32 1.26 1 1 0 0 0 1.89 0 2.36 2.36 0 0 0 .29-1.2"/></clipPath><clipPath id="acclip-path-18"><path class="accls-1" d="M63.77 10.26l-1.47 5h-1l-.61-2.17q-.23-.81-.38-1.62a12.45 12.45 0 0 1-.38 1.62l-.65 2.17h-1l-1.39-5H58l.53 2.38q.19.84.32 1.61.12-.63.39-1.6l.67-2.39h.85l.64 2.34q.23.86.38 1.65a16.6 16.6 0 0 1 .32-1.65l.57-2.34h1z"/></clipPath><clipPath id="acclip-path-19"><path class="accls-1" d="M69.2 15.27h-1V12.4q0-1.33-.95-1.33a.92.92 0 0 0-.76.36 1.34 1.34 0 0 0-.29.86v3h-1v-3.6-1.43h.8V11a1.57 1.57 0 0 1 .54-.6 1.69 1.69 0 0 1 .95-.28 1.46 1.46 0 0 1 1.1.45 2.29 2.29 0 0 1 .54 1.66z"/></clipPath><clipPath id="acclip-path-20"><path class="accls-2" d="M1 1h135v42.48H1z"/></clipPath><clipPath id="acclip-path-21"><path class="accls-2" d="M71 7h52v9H71z"/></clipPath><clipPath id="acclip-path-22"><path class="accls-2" d="M71.04 7.96h1.05v7.3h-1.05z"/></clipPath><clipPath id="acclip-path-24"><path class="accls-1" d="M78.26 12.72a2.85 2.85 0 0 1-.62 1.9 2.16 2.16 0 0 1-1.73.76 2 2 0 0 1-1.65-.73 2.77 2.77 0 0 1-.61-1.84 2.82 2.82 0 0 1 .64-1.91 2.14 2.14 0 0 1 1.71-.74 2.1 2.1 0 0 1 1.67.73 2.74 2.74 0 0 1 .6 1.83m-1.09 0a2.37 2.37 0 0 0-.28-1.19 1 1 0 0 0-.94-.6 1 1 0 0 0-1 .6 2.41 2.41 0 0 0-.28 1.21A2.37 2.37 0 0 0 75 14a1 1 0 0 0 1 .6 1 1 0 0 0 .94-.61 2.35 2.35 0 0 0 .29-1.2"/></clipPath><clipPath id="acclip-path-26"><path class="accls-1" d="M83.33 15.27h-.94l-.08-.58a1.58 1.58 0 0 1-1.38.69 1.38 1.38 0 0 1-1.08-.45 1.47 1.47 0 0 1-.37-1 1.58 1.58 0 0 1 .72-1.4 3.58 3.58 0 0 1 2-.47v-.09a.87.87 0 0 0-1-1 2.1 2.1 0 0 0-1.23.37l-.21-.73a2.89 2.89 0 0 1 1.62-.43c1.23 0 1.85.69 1.85 2.07v1.84a8.3 8.3 0 0 0 .07 1.19m-1.09-1.72v-.77q-1.73 0-1.73 1a.78.78 0 0 0 .2.59.71.71 0 0 0 .51.2 1 1 0 0 0 .64-.23 1 1 0 0 0 .36-.59.92.92 0 0 0 0-.2"/></clipPath><clipPath id="acclip-path-28"><path class="accls-1" d="M89.29 15.26h-.93l-.05-.8a1.56 1.56 0 0 1-1.51.92 1.74 1.74 0 0 1-1.42-.71 2.88 2.88 0 0 1-.56-1.84 3 3 0 0 1 .61-2 1.83 1.83 0 0 1 1.45-.7 1.39 1.39 0 0 1 1.33.68V8h1v7.35m-1.01-2.2v-.83a1.74 1.74 0 0 0 0-.35 1.28 1.28 0 0 0-.38-.67 1 1 0 0 0-.7-.27 1.06 1.06 0 0 0-.92.49 2.22 2.22 0 0 0-.34 1.27 2.07 2.07 0 0 0 .29 1.21 1.06 1.06 0 0 0 .92.49 1 1 0 0 0 .83-.41 1.43 1.43 0 0 0 .3-.92"/></clipPath><clipPath id="acclip-path-30"><path class="accls-1" d="M98.25 12.72a2.85 2.85 0 0 1-.62 1.9 2.15 2.15 0 0 1-1.73.76 2.05 2.05 0 0 1-1.65-.73 2.77 2.77 0 0 1-.61-1.84 2.82 2.82 0 0 1 .63-1.91 2.14 2.14 0 0 1 1.73-.74 2.1 2.1 0 0 1 1.67.73 2.74 2.74 0 0 1 .6 1.83m-1.09 0a2.37 2.37 0 0 0-.28-1.19 1 1 0 0 0-.94-.6 1 1 0 0 0-1 .6 2.42 2.42 0 0 0-.28 1.21A2.39 2.39 0 0 0 95 14a1 1 0 0 0 1.89 0 2.37 2.37 0 0 0 .29-1.2"/></clipPath><clipPath id="acclip-path-32"><path class="accls-1" d="M103.88 15.27h-1V12.4q0-1.33-1-1.33a.92.92 0 0 0-.76.36 1.34 1.34 0 0 0-.29.86v3h-1v-3.6-1.43h.92v.78a1.59 1.59 0 0 1 .54-.6 1.7 1.7 0 0 1 1-.28 1.46 1.46 0 0 1 1.1.45 2.28 2.28 0 0 1 .54 1.66z"/></clipPath><clipPath id="acclip-path-34"><path class="accls-1" d="M110.94 11.09h-1.15v2.43c0 .62.21.93.61.93a1.75 1.75 0 0 0 .47-.05v.84a2.22 2.22 0 0 1-.81.12 1.22 1.22 0 0 1-1-.4 2.06 2.06 0 0 1-.35-1.35v-2.52h-.69v-.83h.69v-.92l1-.33v1.25h1.15v.83z"/></clipPath><clipPath id="acclip-path-36"><path class="accls-1" d="M116.48 15.27h-1v-2.85q0-1.35-.95-1.35a1 1 0 0 0-1 .78 1.48 1.48 0 0 0 0 .4v3h-1V8h1v3a1.56 1.56 0 0 1 1.42-.82 1.42 1.42 0 0 1 1.08.45 2.37 2.37 0 0 1 .53 1.68z"/></clipPath><clipPath id="acclip-path-38"><path class="accls-1" d="M122.21 12.53a2.85 2.85 0 0 1 0 .5H119a1.38 1.38 0 0 0 1.48 1.48 3.29 3.29 0 0 0 1.27-.24l.16.77a3.75 3.75 0 0 1-1.58.31 2.21 2.21 0 0 1-1.72-.68 2.62 2.62 0 0 1-.62-1.84 3 3 0 0 1 .61-1.83 2 2 0 0 1 1.65-.8 1.72 1.72 0 0 1 1.54.8 2.79 2.79 0 0 1 .42 1.53zm-1-.29a1.57 1.57 0 0 0-.2-.85.9.9 0 0 0-.83-.46 1 1 0 0 0-.83.45 1.75 1.75 0 0 0-.31.87z"/></clipPath></defs><title>app page buttons</title><g class="accls-3"><g class="accls-4"><g class="accls-5"><g class="accls-6"><path d="M-4-4h145v52.48H-4z" class="accls-5"/></g></g></g></g><path d="M-3.11-3.05h143.14v50.57H-3.11z" class="accls-7"/><g class="accls-8"><path class="accls-9" d="M8.79 9.14h30.76V39.7H8.79z"/></g><g class="accls-10"><path class="accls-9" d="M19.11 2.6h15.16v16.26H19.11z"/></g><g class="accls-11"><path class="accls-9" d="M38.41 15.32h21.24v24.13H38.41z"/></g><g class="accls-12"><path class="accls-9" d="M51.42 19.06h19.24v24.55H51.42z"/></g><g class="accls-13"><path class="accls-9" d="M62.46 19.06H81.7v24.55H62.46z"/></g><g class="accls-14"><path class="accls-9" d="M75.78 15.12h18.26v24.55H75.78z"/></g><g class="accls-15"><path class="accls-9" d="M85.24 16.73h15.84v22.94H85.24z"/></g><g class="accls-16"><path class="accls-9" d="M92.29 19.06h19.4v20.63h-19.4z"/></g><g class="accls-17"><path class="accls-9" d="M103.49 19.06h15.13v20.4h-15.13z"/></g><g class="accls-18"><path class="accls-9" d="M109.63 19.04h18.53v20.61h-18.53z"/></g><g class="accls-19"><path class="accls-9" d="M39.68 3.27h15.37v17.06H39.68z"/></g><g class="accls-20"><path class="accls-9" d="M46.29 5.16h14.62v15.22H46.29z"/></g><g class="accls-21"><path class="accls-9" d="M51.94 5.26h16.83v15.01H51.94z"/></g><g class="accls-22"><path class="accls-9" d="M60.07 5.15H74.2v15.11H60.07z"/></g><g class="accls-23"><g class="accls-4"><g class="accls-24"><g class="accls-25"><g class="accls-5"><path class="accls-9" d="M66.04 2.96h11.05v17.3H66.04z"/></g></g><g class="accls-26"><g class="accls-5"><path class="accls-9" d="M68.64 5.16h14.62v15.22H68.64z"/></g></g><g class="accls-27"><g class="accls-5"><path class="accls-9" d="M74.46 5.16h13.87v15.22H74.46z"/></g></g><g class="accls-28"><g class="accls-5"><path class="accls-9" d="M79.79 2.96h14.5v17.42h-14.5z"/></g></g><g class="accls-29"><g class="accls-5"><path class="accls-9" d="M88.63 5.16h14.62v15.22H88.63z"/></g></g><g class="accls-30"><g class="accls-5"><path class="accls-9" d="M94.75 5.15h14.13v15.11H94.75z"/></g></g><g class="accls-31"><g class="accls-5"><path class="accls-9" d="M103.07 4.01h12.87v16.36h-12.87z"/></g></g><g class="accls-32"><g class="accls-5"><path class="accls-9" d="M107.39 2.96h14.1v17.3h-14.1z"/></g></g><g class="accls-33"><g class="accls-5"><path class="accls-9" d="M113.02 5.15h14.19v15.21h-14.19z"/></g></g></g></g></g></svg><svg width="135" height="40" viewBox="0 0 135 40" id="app-store-download" x="218" y="108" xmlns="http://www.w3.org/2000/svg"><title>app store@3x</title><defs><path id="ada" d="M67.5 0H135v40H0V0z"/><path id="adc" d="M0 40h135V0H0z"/></defs><g fill="none" fill-rule="evenodd"><mask id="adb" fill="#fff"><use xlink:href="#ada"/></mask><path d="M130.197 40H4.73A4.74 4.74 0 0 1 0 35.267V4.726A4.733 4.733 0 0 1 4.73 0h125.467C132.802 0 135 2.12 135 4.726v30.541c0 2.605-2.198 4.733-4.803 4.733" fill="#A6A6A6" mask="url(#adb)"/><path d="M134.032 35.268a3.83 3.83 0 0 1-3.834 3.83H4.73a3.835 3.835 0 0 1-3.839-3.83V4.726A3.84 3.84 0 0 1 4.73.89h125.467a3.834 3.834 0 0 1 3.834 3.835l.001 30.542z" fill="#000"/><path d="M30.128 19.784c-.03-3.223 2.639-4.79 2.76-4.864-1.51-2.203-3.852-2.504-4.675-2.528-1.967-.207-3.875 1.177-4.877 1.177-1.022 0-2.565-1.157-4.228-1.123-2.14.033-4.142 1.272-5.24 3.196-2.266 3.923-.576 9.688 1.595 12.86 1.086 1.552 2.355 3.286 4.016 3.224 1.625-.066 2.232-1.035 4.193-1.035 1.943 0 2.513 1.035 4.207.997 1.744-.028 2.842-1.56 3.89-3.128 1.255-1.779 1.759-3.532 1.779-3.622-.041-.014-3.387-1.29-3.42-5.154M26.928 10.306c.874-1.093 1.472-2.58 1.306-4.089-1.265.056-2.847.875-3.758 1.944-.806.942-1.526 2.486-1.34 3.938 1.421.106 2.88-.717 3.792-1.793M49.755 25.955L48.63 22.48c-.12-.355-.342-1.19-.671-2.507h-.04a96.75 96.75 0 0 1-.632 2.507l-1.105 3.475h3.573zm3.89 5.55h-2.271l-1.244-3.91h-4.324l-1.185 3.91H42.41l4.284-13.309h2.646l4.305 13.308zM62.49 26.666c0-.934-.21-1.704-.632-2.31-.46-.632-1.08-.948-1.856-.948-.526 0-1.004.176-1.43.523-.429.35-.709.807-.84 1.373-.066.264-.099.48-.099.65v1.6c0 .698.214 1.287.642 1.768.428.481.984.721 1.668.721.803 0 1.428-.31 1.875-.928.448-.619.672-1.435.672-2.449m2.172-.078c0 1.632-.44 2.922-1.323 3.869-.79.843-1.77 1.264-2.942 1.264-1.264 0-2.172-.454-2.725-1.362h-.04v5.055H55.5V25.067c0-1.026-.027-2.079-.079-3.159h1.875l.12 1.521h.04c.71-1.146 1.79-1.718 3.237-1.718 1.132 0 2.077.447 2.833 1.342.758.896 1.136 2.074 1.136 3.535M73.527 26.666c0-.934-.21-1.704-.634-2.31-.46-.632-1.077-.948-1.854-.948-.528 0-1.004.176-1.432.523-.429.35-.707.807-.839 1.373-.064.264-.098.48-.098.65v1.6c0 .698.213 1.287.64 1.768.428.48.984.721 1.67.721.803 0 1.428-.31 1.875-.928.447-.619.672-1.435.672-2.449m2.172-.078c0 1.632-.442 2.922-1.324 3.869-.789.843-1.77 1.264-2.942 1.264-1.263 0-2.172-.454-2.723-1.362h-.04v5.055h-2.132V25.067c0-1.026-.027-2.079-.079-3.159h1.875l.12 1.521h.04c.71-1.146 1.788-1.718 3.237-1.718 1.131 0 2.075.447 2.834 1.342.755.896 1.134 2.074 1.134 3.535M88.04 27.773c0 1.131-.394 2.053-1.183 2.764-.867.777-2.074 1.165-3.625 1.165-1.432 0-2.58-.278-3.449-.83l.494-1.777a5.836 5.836 0 0 0 3.082.85c.803 0 1.428-.183 1.877-.544.447-.361.67-.849.67-1.453 0-.54-.184-.995-.554-1.364-.366-.37-.979-.712-1.835-1.03-2.33-.87-3.494-2.141-3.494-3.816 0-1.093.408-1.99 1.225-2.69.813-.697 1.9-1.046 3.258-1.046 1.211 0 2.217.21 3.02.63l-.533 1.74c-.75-.41-1.599-.613-2.547-.613-.75 0-1.336.184-1.756.553a1.58 1.58 0 0 0-.533 1.204c0 .528.203.962.611 1.305.355.314 1 .656 1.936 1.025 1.145.462 1.986 1 2.527 1.619.538.616.808 1.387.808 2.308M95.088 23.508h-2.35v4.659c0 1.185.414 1.778 1.245 1.778.38 0 .696-.034.946-.1l.059 1.619c-.42.157-.973.236-1.658.236-.842 0-1.5-.256-1.974-.77s-.712-1.376-.712-2.587v-4.837h-1.4v-1.6h1.4v-1.757l2.094-.632v2.389h2.35v1.602zM103.478 26.696c0-.886-.188-1.645-.57-2.277-.448-.766-1.087-1.148-1.915-1.148-.858 0-1.507.383-1.954 1.148-.383.633-.573 1.405-.573 2.317 0 .885.19 1.644.573 2.275.46.767 1.103 1.15 1.934 1.15.816 0 1.454-.392 1.915-1.169.393-.646.59-1.412.59-2.296m2.214-.069c0 1.474-.423 2.686-1.265 3.632-.884.976-2.055 1.461-3.516 1.461-1.409 0-2.53-.466-3.365-1.4-.837-.935-1.255-2.113-1.255-3.534 0-1.487.43-2.705 1.294-3.653.862-.948 2.024-1.42 3.485-1.42 1.407 0 2.54.465 3.395 1.401.819.907 1.227 2.078 1.227 3.513M112.621 23.783a3.708 3.708 0 0 0-.672-.06c-.75 0-1.33.284-1.738.851-.355.5-.533 1.132-.533 1.895v5.035h-2.13l.02-6.575c0-1.105-.028-2.112-.08-3.02h1.856l.078 1.836h.06c.224-.63.578-1.139 1.065-1.52a2.583 2.583 0 0 1 1.541-.514c.197 0 .375.013.533.04v2.032zM120.123 25.7c.014-.633-.125-1.179-.414-1.64-.369-.593-.936-.889-1.699-.889-.697 0-1.264.29-1.697.87-.355.46-.566 1.012-.631 1.657h4.441v.001zm2.033.552a5 5 0 0 1-.078.967h-6.396c.025.948.334 1.672.928 2.172.539.448 1.236.672 2.092.672.947 0 1.811-.15 2.588-.454l.334 1.48c-.908.396-1.98.592-3.217.592-1.488 0-2.656-.437-3.506-1.312-.848-.875-1.273-2.05-1.273-3.524 0-1.447.395-2.652 1.186-3.613.828-1.026 1.947-1.539 3.355-1.539 1.383 0 2.43.513 3.141 1.54.563.814.846 1.821.846 3.02zM47.945 10.038c0-.763-.202-1.348-.606-1.756-.404-.407-.994-.61-1.771-.61-.33 0-.611.021-.844.067v4.89c.129.02.365.028.708.028.802 0 1.42-.223 1.857-.669.436-.446.656-1.096.656-1.95m1.105-.029c0 1.177-.353 2.063-1.058 2.658-.653.55-1.581.824-2.783.824-.596 0-1.106-.026-1.533-.078v-6.43c.557-.09 1.157-.137 1.805-.137 1.145 0 2.008.25 2.59.747.652.563.979 1.368.979 2.416M53.822 11.07c0-.434-.094-.807-.281-1.118-.22-.376-.533-.564-.94-.564-.421 0-.741.188-.961.564-.188.31-.281.69-.281 1.138 0 .435.094.808.28 1.119.228.376.544.564.952.564.4 0 .714-.191.94-.574.194-.317.29-.693.29-1.128m1.088-.034c0 .725-.207 1.319-.621 1.785-.434.479-1.01.718-1.727.718-.692 0-1.243-.23-1.654-.69-.41-.458-.615-1.037-.615-1.735 0-.73.21-1.33.635-1.794.424-.465.994-.698 1.712-.698.692 0 1.248.229 1.669.688.4.446.6 1.022.6 1.726M62.765 8.72l-1.475 4.713h-.96l-.61-2.047a15.32 15.32 0 0 1-.38-1.523h-.019a11.15 11.15 0 0 1-.379 1.523l-.649 2.047h-.97L55.934 8.72h1.077l.533 2.241c.13.53.235 1.035.32 1.513h.02c.077-.394.206-.896.388-1.503l.67-2.25h.853l.641 2.202c.155.537.281 1.054.378 1.552h.03c.07-.485.177-1.002.32-1.552l.571-2.202h1.03zM68.198 13.433H67.15v-2.7c0-.832-.316-1.248-.95-1.248a.946.946 0 0 0-.757.343 1.217 1.217 0 0 0-.29.808v2.796h-1.049v-3.366c0-.414-.013-.863-.038-1.349h.921l.05.737h.028c.122-.229.304-.418.543-.569.284-.176.602-.265.95-.265.44 0 .806.142 1.097.427.361.35.543.87.543 1.562v2.824z" fill="#FFF"/><mask id="add" fill="#fff"><use xlink:href="#adc"/></mask><path fill="#FFF" mask="url(#add)" d="M70.041 13.433h1.047V6.556h-1.047zM76.17 11.07c0-.434-.094-.807-.281-1.118-.22-.376-.532-.564-.94-.564-.421 0-.741.188-.96.564-.188.31-.281.69-.281 1.138 0 .435.094.808.28 1.119.228.376.544.564.953.564.399 0 .712-.191.938-.574.195-.317.29-.693.29-1.128m1.089-.034c0 .725-.207 1.319-.621 1.785-.434.479-1.01.718-1.727.718-.693 0-1.244-.23-1.654-.69-.41-.458-.615-1.037-.615-1.735 0-.73.21-1.33.635-1.794.424-.465.994-.698 1.71-.698.694 0 1.249.229 1.67.688.4.446.602 1.022.602 1.726M81.242 11.813v-.727c-1.156-.02-1.734.297-1.734.95 0 .246.066.43.201.553a.731.731 0 0 0 .512.184c.23 0 .445-.073.641-.218a.891.891 0 0 0 .38-.742m1.088 1.62h-.942l-.078-.543h-.028c-.322.433-.78.65-1.377.65-.445 0-.806-.143-1.076-.427a1.339 1.339 0 0 1-.369-.96c0-.576.24-1.015.722-1.319.483-.304 1.161-.453 2.034-.446V10.3c0-.621-.327-.931-.979-.931-.465 0-.875.117-1.229.349l-.213-.688c.438-.271.98-.407 1.617-.407 1.231 0 1.85.65 1.85 1.95v1.736c0 .471.023.846.068 1.124M87.2 11.445v-.786a1.194 1.194 0 0 0-.408-.965 1.032 1.032 0 0 0-.702-.257c-.39 0-.698.155-.922.466-.223.31-.336.708-.336 1.193 0 .466.107.844.322 1.135.227.31.532.465.916.465.344 0 .62-.13.828-.388.201-.24.301-.527.301-.863m1.086 1.988h-.93l-.05-.757h-.028c-.297.576-.804.864-1.515.864-.567 0-1.04-.223-1.416-.67-.375-.445-.56-1.024-.56-1.735 0-.763.202-1.381.61-1.853.395-.44.88-.66 1.454-.66.634 0 1.077.213 1.328.64h.021V6.556h1.05v5.607c0 .459.011.882.036 1.27M96.162 11.07c0-.434-.094-.807-.28-1.118-.222-.376-.534-.564-.942-.564-.42 0-.74.188-.962.564-.187.31-.28.69-.28 1.138 0 .435.094.808.28 1.119.228.376.544.564.952.564.4 0 .714-.191.941-.574.193-.317.291-.693.291-1.128m1.086-.034c0 .725-.207 1.319-.62 1.785-.435.479-1.009.718-1.728.718-.69 0-1.242-.23-1.654-.69-.41-.458-.615-1.037-.615-1.735 0-.73.211-1.33.635-1.794.424-.465.994-.698 1.712-.698.692 0 1.248.229 1.67.688.4.446.6 1.022.6 1.726M102.883 13.433h-1.047v-2.7c0-.832-.316-1.248-.951-1.248a.942.942 0 0 0-.756.343 1.212 1.212 0 0 0-.291.808v2.796h-1.05v-3.366c0-.414-.01-.863-.036-1.349h.92l.049.737h.029a1.53 1.53 0 0 1 .543-.569c.285-.176.602-.265.95-.265.44 0 .806.142 1.097.427.363.35.543.87.543 1.562v2.824zM109.936 9.504h-1.154v2.29c0 .582.206.873.61.873.19 0 .346-.016.469-.05l.025.796c-.206.078-.477.117-.813.117-.413 0-.736-.126-.97-.378-.232-.252-.35-.676-.35-1.271V9.504h-.688v-.785h.689v-.864l1.027-.31v1.173h1.153v.786h.002zM115.484 13.433h-1.05v-2.68c0-.845-.315-1.268-.948-1.268-.486 0-.818.245-1 .735-.03.103-.05.23-.05.377v2.835h-1.047V6.556h1.047v2.841h.021c.33-.517.802-.775 1.416-.775.433 0 .793.142 1.078.427.354.355.533.883.533 1.581v2.803zM120.207 10.582a1.411 1.411 0 0 0-.203-.805c-.182-.291-.459-.437-.834-.437a.995.995 0 0 0-.834.427 1.586 1.586 0 0 0-.311.815h2.182zm1 .271c0 .188-.014.346-.039.475h-3.143c.014.466.164.821.455 1.067.266.22.609.33 1.029.33.465 0 .889-.074 1.271-.223l.164.728c-.447.194-.973.291-1.582.291-.73 0-1.305-.215-1.721-.645-.418-.43-.625-1.007-.625-1.731 0-.711.193-1.303.582-1.775.406-.504.955-.756 1.648-.756.678 0 1.193.252 1.541.756.281.4.42.895.42 1.483z"/></g></svg><svg id="apple-pay" width="46" height="28" viewBox="0 0 46 28" x="353" y="148" xmlns="http://www.w3.org/2000/svg"><style>.aest0{fill:#fff}.aest1{fill:#f2f2f2}</style><path class="aest0" d="M.5.5h45v27H.5z"/><path class="aest1" d="M45 1v26H1V1h44m1-1H0v28h46V0z"/><path d="M12.3 7.6c.5-.6.8-1.3.7-2.1-.7 0-1.5.4-1.9 1-.4.5-.8 1.3-.7 2 .7.1 1.5-.3 1.9-.9zm1.9 4.9c0-1.7 1.4-2.5 1.4-2.5-.8-1.1-2-1.3-2.4-1.3-1-.1-2 .6-2.5.6s-1.3-.6-2.2-.6c-1.1 0-2.2.7-2.7 1.7-1.2 2-.3 5 .8 6.7.6.8 1.2 1.7 2.1 1.7.8 0 1.2-.5 2.2-.5 1 0 1.3.5 2.2.5.9 0 1.5-.8 2-1.6.6-.9.9-1.8.9-1.9 0-.1-1.7-.8-1.8-2.8zM25 7.6c-.3-.3-.8-.6-1.3-.7-.5-.2-1.1-.3-1.8-.3-.5 0-.9 0-1.3.1-.4 0-.7.1-1.1.2h-.1v11.8h1.1v-5c.4.1.8.1 1.2.1.6 0 1.2-.1 1.7-.2s1-.4 1.4-.7c.4-.3.7-.7.9-1.2.2-.5.3-1 .3-1.6 0-.5-.1-1-.2-1.4-.3-.4-.5-.8-.8-1.1zm-1 4.5c-.6.5-1.3.7-2.3.7h-.8c-.2 0-.4 0-.5-.1v-5c.1 0 .3-.1.5-.1h.9c.4 0 .8 0 1.2.2.4 0 .7.2 1 .4.3.2.5.5.6.8.1.3.2.7.2 1.1 0 .9-.3 1.6-.8 2zm8.3 5.4v-4.3c0-.4 0-.8-.1-1.2-.1-.4-.2-.8-.4-1.1-.2-.3-.5-.6-.9-.8-.4-.2-.9-.3-1.5-.3-.4 0-.9.1-1.3.2s-.8.3-1.2.6l-.1.1.4.9.1-.1c.3-.2.6-.3.9-.4.3-.1.7-.2 1-.2.4 0 .8.1 1.1.2.3.2.5.4.6.6.1.2.2.5.3.8 0 .3.1.5.1.7v.1c-1.6 0-2.8.3-3.7.8-.9.6-1.3 1.4-1.3 2.4 0 .3.1.6.2.9.1.3.3.6.5.8.2.2.5.4.8.5.3.1.7.2 1.1.2.6 0 1.2-.2 1.7-.5.2-.1.4-.3.6-.5l.2-.2.1 1h1v-.2c-.1-.3-.2-.6-.2-1zm-1.1-1.6c0 .1 0 .3-.1.5l-.3.6c-.3.4-.7.7-1.1.9-.3.1-.6.1-.9.1-.2 0-.4 0-.6-.1-.2-.1-.3-.2-.5-.3-.1-.1-.3-.3-.3-.5-.1-.2-.1-.4-.1-.7 0-.5.1-.8.4-1.1.3-.3.6-.5 1-.7.4-.2.9-.3 1.3-.3s.8-.1 1.2-.1v1.7zm8.4-5.8l-2 5.5c-.1.3-.2.7-.3 1-.1.2-.1.3-.2.5-.1-.2-.1-.3-.2-.5l-.3-.9-2.1-5.5h-1.1l3.1 7.9c.1.2.1.3.1.3s0 .1-.1.3c-.2.4-.4.8-.7 1.2-.2.3-.5.6-.7.8-.2.2-.5.4-.7.6-.3.1-.5.3-.7.4l-.1.1.4.9h.1c.1 0 .3-.1.6-.3.3-.1.6-.4.9-.7.3-.3.6-.6.8-.9.2-.3.5-.7.7-1.1.2-.4.4-.9.7-1.4.2-.5.4-1.1.7-1.8l2.5-6.3-1.4-.1z"/></svg><svg id="arrowdown" data-name="Layer 1" viewBox="0 0 40 14" width="40" height="14" x="399" y="176" xmlns="http://www.w3.org/2000/svg"><defs><style>.afcls-1{stroke:#000;stroke-miterlimit:10;stroke-width:.5px}</style></defs><title>arrowleft</title><path class="afcls-1" d="M20 13.1L.7 1.8V.9h.5l19.3 11.3-.5.9z"/><path class="afcls-1" d="M20.2 13.1L39.5 1.8V.9H39L19.7 12.2l.5.9z"/></svg><svg id="arrowleft" viewBox="0 0 14 40" width="14" height="40" x="439" y="190" xmlns="http://www.w3.org/2000/svg"><style>.agst0{stroke:#000;stroke-width:.5;stroke-miterlimit:10}</style><path class="agst0" d="M1 19.9L12.3.6h.9v.5L1.9 20.4z"/><path class="agst0" d="M1 20.1l11.3 19.3h.9v-.5L1.9 19.6z"/></svg><svg viewBox="0 0 14 40" width="14" height="40" id="arrowleft-black" x="453" y="230" xmlns="http://www.w3.org/2000/svg"><title>arrowleft-white</title><path d="M1 19.9L12.3.6h.9v.5L1.9 20.4z"/><path d="M1 20.1l11.3 19.3h.9v-.5L1.9 19.6z"/></svg><svg id="arrowleft-white" data-name="Layer 1" viewBox="0 0 14 40" width="14" height="40" x="467" y="270" xmlns="http://www.w3.org/2000/svg"><defs><style>.aicls-1{fill:#fff;stroke:#fff;stroke-miterlimit:10;stroke-width:.5px}</style></defs><title>arrowleft-white</title><path class="aicls-1" d="M1 19.9L12.3.6h.9v.5L1.9 20.4l-.9-.5z"/><path class="aicls-1" d="M1 20.1l11.3 19.3h.9v-.5L1.9 19.6l-.9.5z"/></svg><svg id="arrowright" viewBox="0 0 14 40" width="14" height="40" x="481" y="310" xmlns="http://www.w3.org/2000/svg"><style>.ajst0{stroke:#000;stroke-width:.5;stroke-miterlimit:10}</style><path class="ajst0" d="M12.3 20.4L1 1.1V.6h.9l11.3 19.3z"/><path class="ajst0" d="M12.3 19.6L1 38.9v.5h.9l11.3-19.3z"/></svg><svg viewBox="0 0 14 40" width="14" height="40" id="arrowright-black" x="495" y="350" xmlns="http://www.w3.org/2000/svg"><title>arrowright-white</title><path d="M12.3 20.4L1 1.1V.6h.9l11.3 19.3z"/><path d="M12.3 19.6L1 38.9v.5h.9l11.3-19.3z"/></svg><svg id="arrowright-white" data-name="Layer 1" viewBox="0 0 14 40" width="14" height="40" x="509" y="390" xmlns="http://www.w3.org/2000/svg"><defs><style>.alcls-1{fill:#fff;stroke:#fff;stroke-miterlimit:10;stroke-width:.5px}</style></defs><title>arrowright-white</title><path class="alcls-1" d="M12.3 20.4L1 1.1V.6h.9l11.3 19.3-.9.5z"/><path class="alcls-1" d="M12.3 19.6L1 38.9v.5h.9l11.3-19.3-.9-.5z"/></svg><svg id="bin" viewBox="0 0 13 15" width="13" height="15" x="523" y="430" xmlns="http://www.w3.org/2000/svg"><style>.amst0{fill:none;stroke:#000;stroke-miterlimit:10}</style><path transform="rotate(-90 6.5 2.618)" d="M6-3.5h1V8.8H6z"/><path transform="rotate(180 4.581 8.371)" d="M4.1 4.5h1v7.8h-1z"/><path transform="rotate(180 6.5 8.371)" d="M6 4.5h1v7.8H6z"/><path transform="rotate(180 8.419 8.371)" d="M7.9 4.5h1v7.8h-1z"/><path class="amst0" d="M2.1 2.9v11.5h8.8V2.9M9.5 2.7L8.3.6H4.5l-1 2"/></svg><svg id="calgiftcard" viewBox="0 0 23.5 23.5" width="23.5" height="23.5" x="536" y="445" xmlns="http://www.w3.org/2000/svg"><style>.anst0{fill:#969696}</style><path class="anst0" d="M20.6 6.3v13.6c0 .4-.1.7-.4 1s-.6.4-1 .4H4.3c-.4 0-.7-.1-1-.4-.3-.3-.4-.6-.4-1V6.3c0-.4.1-.7.4-1 .3-.2.6-.3 1-.3h1.4V4c0-.5.2-.9.5-1.2.3-.3.7-.5 1.2-.5H8c.5 0 .9.2 1.2.5.3.3.5.7.5 1.2v1h4.1V4c0-.5.2-.9.5-1.2.3-.3.7-.5 1.2-.5h.7c.5 0 .9.2 1.2.5.3.3.5.7.5 1.2v1h1.4c.4 0 .7.1 1 .4s.3.6.3.9zM4.3 12.1h3.1V9H4.3v3.1zm0 4.1h3.1v-3.4H4.3v3.4zm0 3.7h3.1v-3.1H4.3v3.1zM8.4 7V3.9c0-.1 0-.2-.1-.2-.1-.1-.2-.1-.3-.1h-.7c-.1 0-.2 0-.2.1-.1.1-.1.2-.1.2V7c0 .1 0 .2.1.2.1.1.1.1.2.1H8c.1 0 .2 0 .2-.1.1 0 .2-.1.2-.2zM8 12.1h3.4V9H8v3.1zm0 4.1h3.4v-3.4H8v3.4zm0 3.7h3.4v-3.1H8v3.1zm4.1-7.8h3.4V9h-3.4v3.1zm0 4.1h3.4v-3.4h-3.4v3.4zm0 3.7h3.4v-3.1h-3.4v3.1zM16.5 7V3.9c0-.1 0-.2-.1-.2-.1-.1-.1-.1-.2-.1h-.7c-.1 0-.2 0-.2.1-.1.1-.1.1-.1.2V7c0 .1 0 .2.1.2.1.1.1.1.2.1h.7c.1 0 .2 0 .2-.1.1 0 .1-.1.1-.2zm-.3 5.1h3.1V9h-3.1v3.1zm0 4.1h3.1v-3.4h-3.1v3.4zm0 3.7h3.1v-3.1h-3.1v3.1z"/></svg><svg viewBox="0 0 30 22" width="30" height="22" id="chat" x="560" y="469" xmlns="http://www.w3.org/2000/svg"><path d="M28.3 13.2c0-2.3-1.6-4.4-4.4-5.6C23.2 3.7 18.6.8 12.8.8 6.7.8 1.7 4.3 1.7 8.5c0 2.2 1.3 4.2 3.6 5.7 0 .5-.2 1.9-.3 3.1 0 .2.1.4.3.5.1 0 .2.1.3.1.1 0 .2 0 .3-.1 1.1-.9 2.4-1.9 2.8-2.1l1.5.3c1.6 2.3 4.9 3.8 8.6 3.8 1.2 0 2.4-.2 3.5-.5.4.2 1.5 1.1 2.4 1.8.1.1.2.1.3.1.1 0 .2 0 .3-.1.2-.1.3-.3.3-.5-.1-1-.3-2.1-.3-2.6 1.9-1.2 3-3 3-4.8zM8.8 14.6c-.3-.1-.4-.1-2.6 1.5.3-2.4.1-2.6-.2-2.7-2.1-1.3-3.2-3-3.2-4.9 0-3.7 4.5-6.6 10.1-6.6 4.8 0 8.9 2.2 9.8 5.3h-.1c-.1 0-.2-.1-.3-.1-.3-.1-.6-.2-.8-.3-.1 0-.3 0-.4-.1-.3 0-.5-.1-.8-.1h-.4c-.4 0-.8-.1-1.2-.1-2.1 0-4.1.5-5.8 1.4-1.2.6-2.2 1.5-2.8 2.4-.6.9-.9 1.8-.9 2.8v.7c0 .2.1.4.1.6v.1c0 .1 0 .1.1.2-.1 0-.4-.1-.6-.1zm15.7 2.6c-.3.2-.4.3-.2 2.2-1.3-1-1.7-1.2-1.9-1.2h-.2c-1.1.3-2.2.5-3.4.5-3.5 0-6.5-1.4-7.8-3.5-.4-.6-.6-1.3-.6-2 0-.8.2-1.5.7-2.2.5-.8 1.4-1.5 2.4-2.1 1.5-.8 3.3-1.2 5.3-1.2 1.6 0 3.1.3 4.4.8 2.5 1 4 2.8 4 4.7 0 1.5-1 3-2.7 4z"/><path d="M23.6 12.7H14c-.1 0-.3.1-.3.3 0 .1.1.3.3.3h9.6c.1 0 .3-.1.3-.3 0-.2-.2-.3-.3-.3zM22.4 14.6h-7.3c-.1 0-.3.1-.3.3 0 .1.1.3.3.3h7.3c.1 0 .3-.1.3-.3 0-.1-.1-.3-.3-.3zM15.2 11.4h7.3c.1 0 .3-.1.3-.3s-.1-.3-.3-.3h-7.3c-.1 0-.3.1-.3.3s.1.3.3.3z"/></svg><svg id="chat-white" viewBox="0 0 45 45" width="45" height="45" x="590" y="491" xmlns="http://www.w3.org/2000/svg"><style>.apst0{fill:#fff}</style><path class="apst0" d="M38.5 25.1c0-2.8-1.9-5.3-5.3-6.7-.8-4.7-6.4-8.2-13.3-8.2-7.3 0-13.3 4.2-13.3 9.2 0 2.6 1.6 5 4.3 6.8 0 .6-.2 2.3-.4 3.7 0 .2.1.5.4.6.1 0 .2.1.4.1.1 0 .2 0 .4-.1 1.3-1.1 2.9-2.3 3.4-2.5.6.1 1.2.2 1.8.4 1.9 2.8 5.9 4.6 10.3 4.6 1.4 0 2.9-.2 4.2-.6.5.2 1.8 1.3 2.9 2.2.1.1.2.1.4.1.1 0 .2 0 .4-.1s.4-.4.4-.6c-.1-1.2-.4-2.5-.4-3.1 2.1-1.4 3.4-3.6 3.4-5.8zm-23.4 1.7c-.4-.1-.5-.1-3.1 1.8.4-2.9.1-3.1-.2-3.2C9.3 23.8 8 21.8 8 19.5c0-4.4 5.4-7.9 12.1-7.9 5.8 0 10.7 2.6 11.8 6.4h-.1c-.1 0-.2-.1-.4-.1-.4-.1-.7-.2-1-.4-.1 0-.4 0-.5-.1-.4 0-.6-.1-1-.1h-.5c-.5 0-1-.1-1.4-.1-2.5 0-4.9.6-7 1.7-1.4.7-2.6 1.8-3.4 2.9s-1.1 2.2-1.1 3.4V26c0 .2.1.5.1.7v.1c0 .1 0 .1.1.2 0-.1-.4-.2-.6-.2zm18.8 3.1c-.4.2-.5.4-.2 2.6-1.6-1.2-2-1.4-2.3-1.4h-.2c-1.3.4-2.6.6-4.1.6-4.2 0-7.8-1.7-9.4-4.2-.5-.7-.7-1.5-.7-2.4 0-1 .2-1.8.8-2.6.6-1 1.7-1.8 2.9-2.5 1.8-1 4-1.4 6.4-1.4 1.9 0 3.7.4 5.3 1 3 1.2 4.8 3.4 4.8 5.6 0 1.7-1.2 3.5-3.3 4.7z"/><path class="apst0" d="M32.8 24.5H21.3c-.1 0-.4.1-.4.4 0 .1.1.4.4.4h11.5c.1 0 .4-.1.4-.4s-.3-.4-.4-.4zM31.4 26.8h-8.8c-.1 0-.4.1-.4.4 0 .1.1.4.4.4h8.8c.1 0 .4-.1.4-.4-.1-.1-.2-.4-.4-.4zM22.7 23h8.8c.1 0 .4-.1.4-.4s-.1-.4-.4-.4h-8.8c-.1 0-.4.1-.4.4s.2.4.4.4z"/></svg><svg id="chat-white-min" viewBox="0 0 37 30" width="37" height="30" x="635" y="536" xmlns="http://www.w3.org/2000/svg"><style>.aqst0{fill:#fff}</style><path class="aqst0" d="M36.5 18c0-3.1-2.2-5.9-6-7.6-.9-5.3-7.2-9.2-15-9.2C7.3 1.1.5 5.8.5 11.6c0 2.9 1.8 5.7 4.8 7.7 0 .7-.2 2.6-.5 4.2 0 .3.1.6.4.7.1.1.2.1.4.1s.3-.1.5-.2c1.5-1.2 3.3-2.5 3.8-2.9.7.2 1.3.3 2.1.5 2.1 3.2 6.6 5.2 11.7 5.2 1.7 0 3.3-.2 4.8-.6.5.3 2 1.4 3.2 2.4.1.1.3.2.5.2.1 0 .3 0 .4-.1.3-.2.4-.4.4-.7-.2-1.3-.4-2.9-.4-3.5 2.4-1.8 3.9-4.1 3.9-6.6zm-7.7-8.3c-.1 0-.3-.1-.4-.1-.4-.1-.7-.2-1.1-.3-.2 0-.3-.1-.5-.1-.4-.1-.8-.1-1.2-.2-.2 0-.3 0-.5-.1-.5 0-1-.1-1.6-.1-2.9 0-5.6.6-7.9 1.8-1.6.9-3 2-3.8 3.3-.8 1.2-1.2 2.5-1.2 3.8 0 .3 0 .6.1.8v.1c0 .3.1.5.2.8v.1c0 .1 0 .2.1.3-.4-.1-.7-.2-1-.3-.3-.1-.6-.2-3.5 2.1.4-3.3.2-3.5-.2-3.7C3.6 16.5 2 14.1 2 11.6c0-5 6.1-9 13.7-9 6.5 0 12.1 3.1 13.4 7.1h-.3z"/></svg><svg id="check" viewBox="0 0 22 18" width="22" height="18" x="672" y="566" xmlns="http://www.w3.org/2000/svg"><style>.arst0{fill:none;stroke:#1a1a1a;stroke-width:3;stroke-miterlimit:10}</style><title>arrowleft</title><path class="arst0" d="M19.8 1.6L6 15.3l-3.8-3.8"/></svg><svg viewBox="0 0 24.5 27" width="24.5" height="27" id="checkoutbasket" x="694" y="584" xmlns="http://www.w3.org/2000/svg"><path d="M22.4 5.5v19.6H2.1V5.5h20.3m1.9-1.8H.2v23.2h24.1V3.7z"/><path d="M7.3 9.7l-1.8-.3C5.7 8.5 7.4.2 12.2.2 17.4.2 19 9 19 9.4l-1.8.3c-.4-2.1-2-7.7-4.9-7.7-2.9 0-4.6 5.7-5 7.7z"/></svg><svg id="close" viewBox="0 0 17.9 17.9" width="17.9" height="17.9" x="719" y="611" xmlns="http://www.w3.org/2000/svg"><style>.atst0{fill:none;stroke:#000;stroke-width:2;stroke-miterlimit:10}</style><path class="atst0" d="M1 1l16 16M1 17L17 1"/></svg><svg id="closethin" width="31" height="31" viewBox="0 0 31 31" x="737" y="629" xmlns="http://www.w3.org/2000/svg"><style>.aust0{fill:none;stroke:#231f20;stroke-miterlimit:10}</style><path class="aust0" d="M1.4 1.3l28.5 28.5M1.4 29.8L29.9 1.3"/></svg><svg id="credit-card" width="54" height="32" viewBox="0 0 54 32" x="768" y="660" xmlns="http://www.w3.org/2000/svg"><style>.avst0{fill:#bcbcbc}.avst1{fill:#bdccd4}.avst2{fill:#fff2e8}.avst3{font-family:'OCRAStd'}.avst4{font-size:2.9729px}.st5{fill:none;stroke:#ff1010;stroke-miterlimit:10}.avst6{fill:#ff1d25}</style><path class="avst0" d="M6.4 3.5H46v25H6.4z"/><path d="M6.4 6.7H46v4.8H6.4z"/><path class="avst1" d="M6.4 12.1H46v1.2H6.4z"/><path class="avst2" d="M6.4 13.3H46v1.2H6.4z"/><path class="avst1" d="M6.4 14.5H46v1.2H6.4z"/><path class="avst2" d="M6.4 15.7H46v1.2H6.4z"/><text transform="translate(25.076 15.628)" class="avst3 avst4">2345 678</text><path class="avst6" d="M40.2 9.5h1c.1 0 .1 0 .2.1.6.1 1.2.2 1.7.2 1.6.4 2.9 1.2 3.9 2.5.8 1 1.1 2.2.9 3.5-.2 1.3-.8 2.3-1.8 3.2-1.4 1.2-3.1 1.8-4.9 1.8-1.8.1-3.5-.2-5.1-1.2-1.3-.8-2.3-1.9-2.7-3.5-.1-.3-.1-.4-.1-.7v-.7s0-.1.1-.1c.1-1 .5-1.8 1.2-2.6 1.2-1.4 2.8-2.2 4.6-2.5.3.1.7.1 1 0zm.7 9.4c.2 0 .8-.1 1.2-.2 1.2-.2 2.2-.7 3-1.5 1.2-1.2 1.2-2.8.1-3.9-.4-.5-.9-.8-1.5-1.1-1.3-.7-2.8-.8-4.3-.5-1.2.2-2.2.7-3.1 1.6-.7.7-1 1.6-.8 2.6.2.8.6 1.3 1.2 1.8 1.1.8 2.5 1.1 4.2 1.2z"/></svg><svg id="discover" viewBox="0 0 46 28" width="46" height="28" x="822" y="692" xmlns="http://www.w3.org/2000/svg"><style>.awst0{fill:#fff;stroke:#f2f2f2;stroke-miterlimit:10}.awst1{fill:url(#awSVGID_1_)}.awst2{fill:#001722}.awst3{fill:#231f20}.awst4{fill:#ef7d00}</style><path class="awst0" d="M.5.6h45v27H.5z"/><radialGradient id="awSVGID_1_" cx="17.952" cy="-473.98" r="3.222" gradientTransform="translate(6.416 486.083)" gradientUnits="userSpaceOnUse"><stop offset=".006" stop-color="#ffeee0"/><stop offset=".11" stop-color="#fee9d7"/><stop offset=".279" stop-color="#fddbbf"/><stop offset=".493" stop-color="#fbc597"/><stop offset=".744" stop-color="#f8a560"/><stop offset="1" stop-color="#f48120"/></radialGradient><path class="awst1" d="M24.4 8.9c-1.8 0-3.3 1.4-3.3 3.1 0 1.8 1.4 3.2 3.3 3.2 1.8 0 3.3-1.4 3.3-3.2-.1-1.7-1.5-3.1-3.3-3.1z"/><path class="awst2" d="M5.9 9H4.1v6.1h1.7c.9 0 1.6-.2 2.2-.7.7-.6 1.1-1.4 1.1-2.4 0-1.7-1.3-3-3.2-3zm1.3 4.6c-.4.3-.9.5-1.6.5h-.3v-4h.3c.8 0 1.2.1 1.6.5.4.4.7.9.7 1.5s-.2 1.2-.7 1.5zM9.7 9h1.2v6.1H9.7zM13.8 11.4c-.7-.3-.9-.4-.9-.8s.4-.7.9-.7c.4 0 .7.1 1 .5l.6-.8c-.5-.5-1.1-.7-1.8-.7-1.1 0-1.9.8-1.9 1.8 0 .8.4 1.3 1.5 1.7.5.2.7.3.8.3.2.2.4.4.4.6 0 .5-.4.9-.9.9-.6 0-1-.3-1.3-.8l-.8.7c.5.8 1.2 1.2 2.1 1.2 1.2 0 2.1-.8 2.1-2 0-1-.4-1.4-1.8-1.9zM15.9 12.1c0 1.8 1.4 3.2 3.2 3.2.5 0 1-.1 1.5-.4v-1.4c-.5.5-.9.7-1.4.7-1.2 0-2.1-.9-2.1-2.1 0-1.2.9-2.1 2-2.1.6 0 1 .2 1.5.7V9.3c-.5-.3-1-.4-1.5-.4-1.7 0-3.2 1.4-3.2 3.2zM30.3 13.1L28.7 9h-1.3l2.6 6.3h.6L33.3 9H32zM33.8 15.2h3.4v-1.1H35v-1.6h2.1v-1.1H35v-1.3h2.2V9h-3.4zM41.9 10.8c0-1.1-.8-1.8-2.2-1.8H38v6.1h1.2v-2.5h.2l1.7 2.5h1.5l-1.9-2.6c.7-.1 1.2-.7 1.2-1.7zm-2.4 1h-.3V10h.4c.7 0 1.1.3 1.1.9 0 .6-.4.9-1.2.9z"/><path class="awst3" d="M42.8 9.5c0-.1-.1-.2-.2-.2h-.2v.5h.1v-.1l.2.2h.2l-.2-.2c0-.1.1-.1.1-.2zm-.3.1v-.1c.1-.1.1-.1 0 .1.1-.1.1 0 0 0z"/><path class="awst3" d="M42.6 9.1c-.3 0-.5.2-.5.5s.2.5.5.5.5-.2.5-.5-.3-.5-.5-.5zm0 .9c-.2 0-.4-.2-.4-.4s.2-.4.4-.4.4.2.4.4-.2.4-.4.4zM11.9 17.3l2.1 2.2v-2.1h.3v2.9L12.2 18v2.1h-.3v-2.8z"/><path class="awst3" d="M11.9 17.3v2.9h.4v-2.1c.1.1 2.1 2.2 2.1 2.2v-3H14v2.1c-.1-.1-2.1-2.2-2.1-2.1zm0 0c.1.1 2.1 2.2 2.1 2.2v-2.2h.2v2.8c-.1-.1-2.1-2.2-2.1-2.2v2.2h-.2v-2.8zM15.8 17.4h1.4v.3h-1.1v.8h1.1v.3h-1.1v1.1h1.1v.3h-1.4v-2.8z"/><path class="awst3" d="M17.2 17.3h-1.4v2.8h1.5v-.3h-1.1v-1h1.1v-.3h-1.1v-.8h1.1l-.1-.4zm0 .1v.2h-1.1v.9h1.1v.2h-1.1v1.1h1.1v.2h-1.4v-2.7c.1.1 1.3.1 1.4.1zM19.4 20.1h-.3v-2.5h-.7v-.3H20v.3h-.7v2.5z"/><path class="awst3" d="M20 17.3h-1.7v.3h.7v2.5h.4v-2.5h.7l-.1-.3zm0 .1v.2h-.7v2.5h-.2v-2.5h-.7v-.2H20zM22.1 19.4l.9-2.2.9 2.2.7-2.1h.3l-1.1 2.9L23 18l-.9 2.2-1-2.9h.3l.7 2.1z"/><path class="awst3" d="M22.9 17.2s-.8 2-.9 2.1c0-.1-.7-2-.7-2H21l1.1 3s.8-2.1.9-2.2c0 .1.9 2.2.9 2.2l1.1-3h-.4s-.7 1.9-.7 2c-.1-.1-.9-2.1-1-2.1zm-.8 2.2s.8-2 .9-2.1c0 .1.9 2.2.9 2.2l.7-2.1h.3c0 .1-1 2.6-1 2.8-.1-.2-.9-2.2-.9-2.2s-.8 2.1-.9 2.2c0-.1-1-2.7-1-2.8h.3c-.1 0 .7 2.1.7 2zM28.8 18.7c0 .8-.6 1.4-1.4 1.4-.8 0-1.4-.6-1.4-1.4 0-.8.6-1.4 1.4-1.4.8 0 1.4.7 1.4 1.4zm-2.5 0c0 .6.5 1.1 1.1 1.1.6 0 1.1-.5 1.1-1.1 0-.6-.5-1.1-1.1-1.1-.6 0-1.1.5-1.1 1.1z"/><path class="awst3" d="M26 18.7c0 .8.7 1.4 1.5 1.4s1.5-.6 1.5-1.4c0-.8-.7-1.4-1.5-1.4-.9 0-1.5.6-1.5 1.4zm0 0c0-.8.6-1.4 1.4-1.4.8 0 1.4.6 1.4 1.4 0 .8-.6 1.4-1.4 1.4-.8 0-1.4-.6-1.4-1.4z"/><path class="awst3" d="M26.3 18.7c0 .6.5 1.2 1.2 1.2.6 0 1.1-.5 1.1-1.2 0-.6-.5-1.2-1.1-1.2-.7.1-1.2.6-1.2 1.2zm0 0c0-.6.5-1.1 1.1-1.1.6 0 1.1.5 1.1 1.1 0 .6-.5 1.1-1.1 1.1-.6 0-1.1-.5-1.1-1.1zM30.5 20.1h-.3v-2.7h.4c.5 0 1 .1 1 .8 0 .4-.3.7-.7.8l.9 1.2h-.4l-.8-1.2h-.1v1.1zm0-1.5c.4 0 .8-.1.8-.5s-.3-.5-.7-.5h-.1v1z"/><path class="awst3" d="M30.2 17.3v2.8h.4v-1.2l.8 1.2h.5s-.8-1.2-.9-1.2c.4-.1.7-.4.7-.8 0-.5-.3-.8-1-.8h-.5zm.4.1c.7 0 1 .2 1 .7 0 .4-.3.7-.7.7h-.1s.8 1.1.9 1.2h-.3l-.8-1.2h-.1V20h-.2v-2.7c-.1.1.3.1.3.1z"/><path class="awst3" d="M30.5 17.6v1h.1c.3 0 .7-.1.7-.5s-.4-.5-.8-.5zm.1.1c.4 0 .7 0 .7.5 0 .4-.3.5-.7.5h-.1c0-.1 0-1 .1-1-.1 0 0 0 0 0zM34.5 17.4h.4l-1.3 1.3 1.3 1.5h-.4l-1.1-1.3-.1.1v1.2H33v-2.7h.3v1.2l1.2-1.3z"/><path class="awst3" d="M34.9 17.3h-.4l-1.1 1.1v-1.1H33v2.8h.4v-1.2l1.1 1.2h.5s-1.3-1.5-1.4-1.5c.1 0 1.4-1.3 1.3-1.3zm-.1.1c-.1.1-1.3 1.2-1.3 1.2s1.2 1.3 1.3 1.4h-.4l-1.1-1.2-.1.1v1.2H33v-2.7h.2v1.2l1.2-1.2h.4z"/><path class="awst4" d="M44.9 19.3s-7.8 5.4-22.1 7.8h22.1v-7.8z"/></svg><svg id="emailsignup" viewBox="0 0 45 45" width="45" height="45" x="868" y="720" xmlns="http://www.w3.org/2000/svg"><style>.axst0{fill:none;stroke:#fff;stroke-miterlimit:10}</style><path d="M0 0h45v45H0z"/><path class="axst0" d="M10.3 13.3h25.3v19.3H10.3z"/><path class="axst0" d="M10.3 13.3l12.6 12.6 12.6-12.7M35.7 32.7l-9.8-9.8M10.3 32.7L20 23"/></svg><svg id="end-logo" viewBox="0 0 122 45" width="122" height="45" x="913" y="765" xmlns="http://www.w3.org/2000/svg"><style>.ayst0{fill:#fff}</style><path class="ayst0" d="M0 0h122.1v45H0z"/><g id="ayLayer_6"><g id="ayend-logo"><path d="M.4 44.6V.6h22.9v7.3H8.8V18H20v7.7H8.8v11.4h15.1v7.5zM36.6 44.6V.6h9.1l11.6 26.2h.4V.6h7.4v44h-7.9L44.3 16h-.2v28.6zM87.4 37.1h3.1c4.6 0 7.3-2.2 7.3-9V16.5c0-6.4-2.1-9-7.3-9h-3.1v29.6zM78.9.6h11.8c9.7 0 15 4.1 15.3 15.3v13.4c-.4 11.1-5.8 15.3-15.3 15.3H78.9V.6zM112.9 35.9h8.8v8.8h-8.8z"/></g></g></svg><svg id="end-logo-white" viewBox="0 0 122 45" width="122" height="45" x="1035" y="810" xmlns="http://www.w3.org/2000/svg"><style>.azst0{fill:#fff}</style><path class="azst0" d="M.8 44.5V.7h22.9v7.5H9.2v10h11.1v7.4H9.2V37h15.2v7.5zM36.6 44.5V.7h9.2l11.7 26V.7h7.6v43.8h-7.9L44.4 16.1h-.2v28.4zM87.2 37H90c4.6 0 7.3-2.2 7.3-8.7V16.7c0-6.2-2.1-8.7-7.3-8.7h-2.9v29zM78.8.7h11.7c9.7 0 14.9 4.1 15.2 15.1v13.5c-.3 11.1-5.7 15.1-15.2 15.1H78.8V.7zM112.5 35.8h8.7v8.7h-8.7z"/></svg><svg id="errorwarning" viewBox="0 0 16 16" width="16" height="16" x="1157" y="855" xmlns="http://www.w3.org/2000/svg"><style>.bast0{fill:#fff}</style><circle cx="8" cy="8" r="6.9"/><circle class="bast0" cx="8.1" cy="3.2" r=".9"/><path class="bast0" d="M5.7 5.8H9v5.1h1.9v1.8H5.7V11h1.7V7.3H5.7z"/></svg><svg width="35" height="35" viewBox="0 0 35 35" id="facebook-social" x="1173" y="871" xmlns="http://www.w3.org/2000/svg"><title>Icons/Social Media/Facebook</title><path d="M22.68 10.295h-2.446c-.864 0-1.043.354-1.043 1.247V13.7h3.489l-.337 3.79h-3.152v11.317h-4.52v-11.27h-2.35V13.7h2.35v-3.02c0-2.836 1.517-4.317 4.88-4.317h3.129v3.932z" fill="#1A1A1A" fill-rule="evenodd"/></svg><svg width="35" height="35" viewBox="0 0 35 35" id="facebook-social-hover" x="1208" y="906" xmlns="http://www.w3.org/2000/svg"><title>Icons/Social Media/hover/Facebook</title><path d="M22.68 10.295h-2.446c-.864 0-1.043.354-1.043 1.247V13.7h3.489l-.337 3.79h-3.152v11.317h-4.52v-11.27h-2.35V13.7h2.35v-3.02c0-2.836 1.517-4.317 4.88-4.317h3.129v3.932z" fill="#888" fill-rule="evenodd"/></svg><svg id="fitler-search" viewBox="0 0 15 18" width="15" height="18" x="1243" y="941" xmlns="http://www.w3.org/2000/svg"><style>.bdst0{fill:none;stroke:#ccc;stroke-miterlimit:10}</style><circle class="bdst0" cx="6.3" cy="6.6" r="5"/><path class="bdst0" d="M9.2 10.7l4.5 5.7"/></svg><svg width="107" height="21" viewBox="0 0 107 21" id="gift-card" x="1258" y="959" xmlns="http://www.w3.org/2000/svg"><title>Group 8</title><defs><path d="M3.01.27h26.437c1.322 0 2.407 1.063 2.407 2.362v15.727c0 1.309-1.085 2.362-2.407 2.362H3.01c-1.334 0-2.406-1.053-2.406-2.362V2.632C.604 1.333 1.676.27 3.01.27zM1.646 2.632v2.76H30.81v-2.76c0-.738-.615-1.34-1.364-1.34H3.01a1.35 1.35 0 0 0-1.364 1.34zm0 15.727c0 .746.603 1.339 1.364 1.339h26.437c.75 0 1.364-.593 1.364-1.34V8.46H1.646v9.899z" id="bea"/></defs><g transform="translate(-3 -8)" fill="none" fill-rule="evenodd"><path d="M49.474 26.182c-2.702 0-4.9-1.918-4.9-4.844s2.198-4.83 4.9-4.83c1.82 0 3.01.868 3.766 1.946l-1.344.756a2.973 2.973 0 0 0-2.422-1.246c-1.848 0-3.22 1.414-3.22 3.374 0 1.96 1.372 3.388 3.22 3.388.952 0 1.792-.448 2.212-.84V22.43H48.9v-1.442h4.424v3.5c-.924 1.022-2.226 1.694-3.85 1.694zm6.594-7.77a.917.917 0 0 1-.91-.91c0-.504.42-.91.91-.91.504 0 .91.406.91.91s-.406.91-.91.91zM56.81 26h-1.47v-6.762h1.47V26zm4.074 0h-1.47v-5.474h-1.12v-1.288h1.12v-.378c0-1.47.854-2.338 2.142-2.338.602 0 1.204.154 1.624.588l-.574.91a1.102 1.102 0 0 0-.784-.294c-.574 0-.938.378-.938 1.134v.378h1.372v1.288h-1.372V26zm4.872.168c-1.134 0-1.736-.616-1.736-1.736v-3.906H62.9v-1.288h1.12V17.39h1.47v1.848h1.372v1.288H65.49v3.542c0 .462.224.798.644.798.28 0 .546-.112.658-.238l.35 1.106c-.266.252-.7.434-1.386.434zm11.256 0c-2.758 0-4.9-1.96-4.9-4.83s2.142-4.83 4.9-4.83c1.89 0 3.052.98 3.752 2.1l-1.4.714c-.448-.77-1.344-1.358-2.352-1.358-1.848 0-3.22 1.414-3.22 3.374 0 1.96 1.372 3.374 3.22 3.374a2.742 2.742 0 0 0 2.352-1.358l1.4.714c-.714 1.12-1.862 2.1-3.752 2.1zM87.988 26h-1.47v-.728c-.504.574-1.288.896-2.184.896-1.106 0-2.352-.742-2.352-2.24 0-1.554 1.246-2.198 2.352-2.198.91 0 1.694.294 2.184.868V21.59c0-.784-.644-1.26-1.582-1.26-.756 0-1.414.28-2.002.854l-.602-1.022c.784-.742 1.764-1.092 2.842-1.092 1.498 0 2.814.63 2.814 2.45V26zm-3.08-.84c.644 0 1.274-.238 1.61-.7v-1.022c-.336-.462-.966-.7-1.61-.7-.826 0-1.442.476-1.442 1.218 0 .728.616 1.204 1.442 1.204zm6.804.84h-1.47v-6.762h1.47v.994c.504-.644 1.316-1.148 2.198-1.148v1.456a2.167 2.167 0 0 0-.462-.042c-.616 0-1.442.42-1.736.896V26zm9.968 0h-1.47v-.924c-.518.672-1.302 1.092-2.17 1.092-1.736 0-3.01-1.316-3.01-3.542 0-2.184 1.26-3.556 3.01-3.556.84 0 1.624.392 2.17 1.106v-3.514h1.47V26zm-3.22-1.134c.7 0 1.414-.392 1.75-.896v-2.688c-.336-.504-1.05-.91-1.75-.91-1.162 0-1.904.938-1.904 2.254 0 1.302.742 2.24 1.904 2.24zm7.784 1.302c-1.148 0-2.198-.364-2.898-1.05l.672-1.064c.476.49 1.414.952 2.296.952.882 0 1.33-.378 1.33-.91 0-1.33-4.088-.378-4.088-2.968 0-1.106.952-2.058 2.66-2.058 1.148 0 2.016.406 2.632.952l-.616 1.036c-.406-.462-1.162-.812-2.002-.812-.77 0-1.26.35-1.26.826 0 1.204 4.088.308 4.088 2.996 0 1.19-.994 2.1-2.814 2.1z" fill="#1A1A1A"/><g transform="translate(-6.29 3.33)"><path d="M0 31h50V0H0v31zm.875-.886h48.25V.885H.875v29.229z"/><g transform="translate(8.772 4.844)"><mask id="beb" fill="#fff"><use xlink:href="#bea"/></mask><path fill="#1A1A1A" mask="url(#beb)" d="M-4.605 25.833H37.06V-4.844H-4.605z"/></g><path fill="#000" d="M14.59 21.47h13.542v-1.023H14.589zM30.205 21.47h5.208v-1.023h-5.208z"/></g></g></svg><svg width="107" height="21" viewBox="0 0 107 21" id="gift-card-hover" x="1365" y="980" xmlns="http://www.w3.org/2000/svg"><title>Group 8 Copy 2</title><defs><path d="M3.01.27h26.437c1.322 0 2.407 1.063 2.407 2.362v15.727c0 1.309-1.085 2.362-2.407 2.362H3.01c-1.334 0-2.406-1.053-2.406-2.362V2.632C.604 1.333 1.676.27 3.01.27zM1.646 2.632v2.76H30.81v-2.76c0-.738-.615-1.34-1.364-1.34H3.01a1.35 1.35 0 0 0-1.364 1.34zm0 15.727c0 .746.603 1.339 1.364 1.339h26.437c.75 0 1.364-.593 1.364-1.34V8.46H1.646v9.899z" id="bfa"/></defs><g transform="translate(-3 -8)" fill="none" fill-rule="evenodd"><path d="M49.474 26.182c-2.702 0-4.9-1.918-4.9-4.844s2.198-4.83 4.9-4.83c1.82 0 3.01.868 3.766 1.946l-1.344.756a2.973 2.973 0 0 0-2.422-1.246c-1.848 0-3.22 1.414-3.22 3.374 0 1.96 1.372 3.388 3.22 3.388.952 0 1.792-.448 2.212-.84V22.43H48.9v-1.442h4.424v3.5c-.924 1.022-2.226 1.694-3.85 1.694zm6.594-7.77a.917.917 0 0 1-.91-.91c0-.504.42-.91.91-.91.504 0 .91.406.91.91s-.406.91-.91.91zM56.81 26h-1.47v-6.762h1.47V26zm4.074 0h-1.47v-5.474h-1.12v-1.288h1.12v-.378c0-1.47.854-2.338 2.142-2.338.602 0 1.204.154 1.624.588l-.574.91a1.102 1.102 0 0 0-.784-.294c-.574 0-.938.378-.938 1.134v.378h1.372v1.288h-1.372V26zm4.872.168c-1.134 0-1.736-.616-1.736-1.736v-3.906H62.9v-1.288h1.12V17.39h1.47v1.848h1.372v1.288H65.49v3.542c0 .462.224.798.644.798.28 0 .546-.112.658-.238l.35 1.106c-.266.252-.7.434-1.386.434zm11.256 0c-2.758 0-4.9-1.96-4.9-4.83s2.142-4.83 4.9-4.83c1.89 0 3.052.98 3.752 2.1l-1.4.714c-.448-.77-1.344-1.358-2.352-1.358-1.848 0-3.22 1.414-3.22 3.374 0 1.96 1.372 3.374 3.22 3.374a2.742 2.742 0 0 0 2.352-1.358l1.4.714c-.714 1.12-1.862 2.1-3.752 2.1zM87.988 26h-1.47v-.728c-.504.574-1.288.896-2.184.896-1.106 0-2.352-.742-2.352-2.24 0-1.554 1.246-2.198 2.352-2.198.91 0 1.694.294 2.184.868V21.59c0-.784-.644-1.26-1.582-1.26-.756 0-1.414.28-2.002.854l-.602-1.022c.784-.742 1.764-1.092 2.842-1.092 1.498 0 2.814.63 2.814 2.45V26zm-3.08-.84c.644 0 1.274-.238 1.61-.7v-1.022c-.336-.462-.966-.7-1.61-.7-.826 0-1.442.476-1.442 1.218 0 .728.616 1.204 1.442 1.204zm6.804.84h-1.47v-6.762h1.47v.994c.504-.644 1.316-1.148 2.198-1.148v1.456a2.167 2.167 0 0 0-.462-.042c-.616 0-1.442.42-1.736.896V26zm9.968 0h-1.47v-.924c-.518.672-1.302 1.092-2.17 1.092-1.736 0-3.01-1.316-3.01-3.542 0-2.184 1.26-3.556 3.01-3.556.84 0 1.624.392 2.17 1.106v-3.514h1.47V26zm-3.22-1.134c.7 0 1.414-.392 1.75-.896v-2.688c-.336-.504-1.05-.91-1.75-.91-1.162 0-1.904.938-1.904 2.254 0 1.302.742 2.24 1.904 2.24zm7.784 1.302c-1.148 0-2.198-.364-2.898-1.05l.672-1.064c.476.49 1.414.952 2.296.952.882 0 1.33-.378 1.33-.91 0-1.33-4.088-.378-4.088-2.968 0-1.106.952-2.058 2.66-2.058 1.148 0 2.016.406 2.632.952l-.616 1.036c-.406-.462-1.162-.812-2.002-.812-.77 0-1.26.35-1.26.826 0 1.204 4.088.308 4.088 2.996 0 1.19-.994 2.1-2.814 2.1z" fill="#888"/><g transform="translate(-6.29 3.33)"><path d="M0 31h50V0H0v31zm.875-.886h48.25V.885H.875v29.229z"/><g transform="translate(8.772 4.844)"><mask id="bfb" fill="#fff"><use xlink:href="#bfa"/></mask><path fill="#888" mask="url(#bfb)" d="M-4.605 25.833H37.06V-4.844H-4.605z"/></g><path fill="#888" d="M14.59 21.47h13.542v-1.023H14.589zM30.205 21.47h5.208v-1.023h-5.208z"/></g></g></svg><svg width="45" height="45" viewBox="0 0 45 45" id="googleplus-social" x="1472" y="1001" xmlns="http://www.w3.org/2000/svg"><path d="M22.5-.1C10-.1 0 10 0 22.4s10.1 22.5 22.5 22.5S45 34.8 45 22.4 35-.1 22.5-.1zm5 22.8c0 .7-.1 1.4-.3 2.1-1 4.7-4.3 8.5-10 8.3S6.7 28.5 6.7 22.5c0-5.7 4.6-10.6 10.6-10.6 2.8 0 5.1 1 6.9 2.8l-2.9 3.1c-1.1-1-2.5-1.5-4-1.5-3.5 0-6.1 2.8-6.1 6.3s2.8 6.2 6.1 6.2 5-1.7 5.7-4.3h-5.4v-4.2h9.7c.2 1.5.2 1.7.2 2.4zm8.1.5V26h-2.8v-2.8H30v-2.8h2.8v-2.8h2.8v2.8h4.2v2.8h-4.2z"/></svg><svg id="googleplus-social-hover" viewBox="0 0 45 45" width="45" height="45" x="1517" y="1046" xmlns="http://www.w3.org/2000/svg"><style>.bhst0{fill:#888}</style><path class="bhst0" d="M22.5-.1C10-.1 0 10 0 22.4s10.1 22.5 22.5 22.5S45 34.8 45 22.4 35-.1 22.5-.1zm5 22.8c0 .7-.1 1.4-.3 2.1-1 4.7-4.3 8.5-10 8.3S6.7 28.5 6.7 22.5c0-5.7 4.6-10.6 10.6-10.6 2.8 0 5.1 1 6.9 2.8l-2.9 3.1c-1.1-1-2.5-1.5-4-1.5-3.5 0-6.1 2.8-6.1 6.3s2.8 6.2 6.1 6.2 5-1.7 5.7-4.3h-5.4v-4.2h9.7c.2 1.5.2 1.7.2 2.4zm8.1.5V26h-2.8v-2.8H30v-2.8h2.8v-2.8h2.8v2.8h4.2v2.8h-4.2z"/></svg><svg width="135" height="43" viewBox="0 0 135 43" id="gplay-coming-button" x="1562" y="1091" xmlns="http://www.w3.org/2000/svg"><title>Gplay button</title><defs><linearGradient x1="80.747%" y1="50%" x2="-156.778%" y2="50%" id="bia"><stop stop-color="#FEE000" offset="0%"/><stop stop-color="#FBBC0E" offset="42%"/><stop stop-color="#FAA418" offset="78%"/><stop stop-color="#F99B1C" offset="100%"/></linearGradient><linearGradient x1="86.151%" y1="17.813%" x2="-50.18%" y2="194.699%" id="bib"><stop stop-color="#EF4547" offset="0%"/><stop stop-color="#C6186D" offset="100%"/></linearGradient><linearGradient x1="-50.719%" y1="-95.476%" x2="60.612%" y2="48.895%" id="bic"><stop stop-color="#279E6F" offset="0%"/><stop stop-color="#2BA06F" offset="4%"/><stop stop-color="#53B26C" offset="46%"/><stop stop-color="#6BBD6A" offset="80%"/><stop stop-color="#74C169" offset="100%"/></linearGradient></defs><g fill="none" fill-rule="evenodd"><path d="M130 .85c2.32 0 4.2 1.996 4.2 4.46v31.858c0 2.463-1.88 4.46-4.2 4.46H5c-2.32 0-4.2-1.997-4.2-4.46V5.31C.8 2.846 2.68.85 5 .85h125zm0-.85H5C2.239 0 0 2.377 0 5.31v31.858c0 2.933 2.239 5.31 5 5.31h125c2.761 0 5-2.377 5-5.31V5.31c0-2.933-2.239-5.31-5-5.31z" fill="#F2F2F2" fill-rule="nonzero"/><g transform="translate(7 7)" fill-rule="nonzero"><path d="M1.44 1.018c-.331.432-.49.985-.44 1.54V25.92a2.21 2.21 0 0 0 .46 1.487l.07.074 12.36-13.083v-.308L1.51.943l-.07.075z" fill="#5BC9F4"/><path d="M18 18.773l-4.13-4.385v-.308L18 9.704l.09.054L23 12.71c1.4.839 1.4 2.22 0 3.069l-4.89 2.952-.11.042z" fill="url(#bia)"/><path d="M18.11 18.72l-4.22-4.481L1.44 27.46c.589.55 1.462.577 2.08.064l14.6-8.804" fill="url(#bib)"/><path d="M18.11 9.758L3.51.954a1.558 1.558 0 0 0-2.08.064l12.46 13.22 4.22-4.48z" fill="url(#bic)"/></g><text font-family="ProximaNova-Semibold, Proxima Nova" font-size="11" font-weight="500" letter-spacing="1.1" fill="#1A1A1A"><tspan x="38" y="25">COMING SOON</tspan></text></g></svg><svg width="135" height="40" viewBox="0 0 135 40" id="gplay-download" x="1697" y="1134" xmlns="http://www.w3.org/2000/svg"><title>gplay@3x</title><defs><linearGradient x1="80.747%" y1="50%" x2="-156.778%" y2="50%" id="bja"><stop stop-color="#FEE000" offset="0%"/><stop stop-color="#FBBC0E" offset="42%"/><stop stop-color="#FAA418" offset="78%"/><stop stop-color="#F99B1C" offset="100%"/></linearGradient><linearGradient x1="86.151%" y1="17.813%" x2="-50.18%" y2="194.699%" id="bjb"><stop stop-color="#EF4547" offset="0%"/><stop stop-color="#C6186D" offset="100%"/></linearGradient><linearGradient x1="-50.719%" y1="-95.476%" x2="60.612%" y2="48.895%" id="bjc"><stop stop-color="#279E6F" offset="0%"/><stop stop-color="#2BA06F" offset="4%"/><stop stop-color="#53B26C" offset="46%"/><stop stop-color="#6BBD6A" offset="80%"/><stop stop-color="#74C169" offset="100%"/></linearGradient></defs><g fill-rule="nonzero" fill="none"><rect fill="#000" width="135" height="40" rx="5"/><path d="M130 .8a4.2 4.2 0 0 1 4.2 4.2v30a4.2 4.2 0 0 1-4.2 4.2H5A4.2 4.2 0 0 1 .8 35V5A4.2 4.2 0 0 1 5 .8h125zm0-.8H5a5 5 0 0 0-5 5v30a5 5 0 0 0 5 5h125a5 5 0 0 0 5-5V5a5 5 0 0 0-5-5z" fill="#A7A6A6"/><path d="M47.42 10.24a2.71 2.71 0 0 1-.75 2 2.91 2.91 0 0 1-2.2.89A3.09 3.09 0 0 1 41.35 10a3.09 3.09 0 0 1 3.12-3.13 3.1 3.1 0 0 1 1.23.25c.362.146.684.376.94.67l-.53.53a2 2 0 0 0-1.64-.71A2.32 2.32 0 0 0 42.14 10a2.36 2.36 0 0 0 4 1.73 1.89 1.89 0 0 0 .5-1.22h-2.17v-.72h2.91c.027.149.04.3.04.45z" fill="#FFF"/><path d="M44.47 13.23A3.19 3.19 0 0 1 41.25 10a3.19 3.19 0 0 1 3.22-3.23 3.2 3.2 0 0 1 1.27.23c.385.15.728.39 1 .7l.06.07-.67.67-.13-.06a1.91 1.91 0 0 0-1.57-.68 2.22 2.22 0 0 0-2.19 2.3 2.26 2.26 0 0 0 3.84 1.66 1.75 1.75 0 0 0 .46-1h-2.17v-.97h3.09v.08a2.69 2.69 0 0 1 0 .47 2.81 2.81 0 0 1-.77 2.07 3 3 0 0 1-2.22.92zm0-6.27a3 3 0 0 0 0 6 2.83 2.83 0 0 0 2.13-.86 2.62 2.62 0 0 0 .72-1.93 2.44 2.44 0 0 0 0-.35h-2.75v.52h2.19v.11a2 2 0 0 1-.53 1.28A2.45 2.45 0 0 1 42 10a2.42 2.42 0 0 1 2.43-2.5 2.15 2.15 0 0 1 1.65.67l.39-.38a2.43 2.43 0 0 0-.84-.57A3 3 0 0 0 44.47 7v-.04zM52 7.74h-2.7v1.9h2.46v.72H49.3v1.9H52V13h-3.5V7H52z" fill="#FFF"/><path d="M52.13 13.1h-3.7V6.9h3.7v.94H49.4v1.7h2.46v.92H49.4v1.7h2.73v.94zm-3.5-.2h3.3v-.54H49.2v-2.1h2.46v-.52H49.2v-2.1h2.73V7.1h-3.3v5.8zM55.28 13h-.77V7.74h-1.68V7H57v.74h-1.72z" fill="#FFF"/><path d="M55.38 13.1h-1V7.84h-1.65V6.9h4.32v.94h-1.67v5.26zm-.77-.2h.57V7.64h1.68V7.1h-3.93v.54h1.68v5.26zM59.94 13V7h.77v6z" fill="#FFF"/><path d="M60.81 13.1h-1V6.9h1v6.2zm-.81-.2h.57V7.1H60v5.8zM64.13 13h-.77V7.74h-1.68V7h4.12v.74h-1.67z" fill="#FFF"/><path d="M64.23 13.1h-1V7.84h-1.65V6.9h4.32v.94h-1.67v5.26zm-.77-.2H64V7.64h1.7V7.1h-3.92v.54h1.68v5.26zM73.61 12.22a3.12 3.12 0 0 1-4.4 0 3.07 3.07 0 0 1-.88-2.22 3.07 3.07 0 0 1 .88-2.22 3.1 3.1 0 0 1 4.4 0c.58.59.898 1.392.88 2.22a3.07 3.07 0 0 1-.88 2.22zm-3.83-.5a2.31 2.31 0 0 0 3.26 0 2.35 2.35 0 0 0 .67-1.72A2.35 2.35 0 0 0 73 8.28a2.31 2.31 0 0 0-3.26 0 2.35 2.35 0 0 0-.63 1.72 2.35 2.35 0 0 0 .67 1.72z" fill="#FFF"/><path d="M71.41 13.23a3 3 0 0 1-2.27-.94 3.17 3.17 0 0 1-.91-2.29 3.18 3.18 0 0 1 .91-2.29 3.2 3.2 0 0 1 4.54 0 3.18 3.18 0 0 1 .91 2.29 3.18 3.18 0 0 1-.91 2.29 3 3 0 0 1-2.27.94zm0-6.27a2.86 2.86 0 0 0-2.13.88 3 3 0 0 0-.85 2.16 3 3 0 0 0 .86 2.16 3 3 0 0 0 4.26 0l.07.07-.07-.07a3 3 0 0 0 .84-2.16 3 3 0 0 0-.86-2.15A2.86 2.86 0 0 0 71.41 7v-.04zm0 5.53a2.31 2.31 0 0 1-1.7-.7A2.46 2.46 0 0 1 69 10a2.46 2.46 0 0 1 .69-1.79 2.41 2.41 0 0 1 3.4 0 2.45 2.45 0 0 1 .7 1.79 2.46 2.46 0 0 1-.7 1.79 2.31 2.31 0 0 1-1.68.71v-.01zm-1.56-.84a2.21 2.21 0 0 0 3.12 0 2.26 2.26 0 0 0 .64-1.65A2.26 2.26 0 0 0 73 8.35a2.21 2.21 0 0 0-3.12 0 2.26 2.26 0 0 0-.67 1.65 2.27 2.27 0 0 0 .64 1.65zM75.58 13V7h.94l2.92 4.67V7h.77v6h-.8l-3.06-4.89V13z" fill="#FFF"/><path d="M80.3 13.1h-1l-2.88-4.68v4.68h-1V6.9h1.09l2.78 4.46V6.9h1l.01 6.2zm-.85-.2h.65V7.1h-.57v4.67h-.19L76.46 7.1h-.78v5.8h.57V8h.19l3.01 4.9zM68.14 21.75A4.25 4.25 0 1 0 72.41 26a4.19 4.19 0 0 0-4.27-4.25zm0 6.83a2.58 2.58 0 1 1 2.4-2.58 2.46 2.46 0 0 1-2.4 2.58zm-9.31-6.83A4.25 4.25 0 1 0 63.09 26a4.19 4.19 0 0 0-4.27-4.25h.01zm0 6.83A2.58 2.58 0 1 1 61.22 26a2.46 2.46 0 0 1-2.4 2.58h.01zm-11.09-5.52v1.8h4.32a3.77 3.77 0 0 1-1 2.27 4.42 4.42 0 0 1-3.33 1.32 4.8 4.8 0 1 1 0-9.6A4.6 4.6 0 0 1 51 20.14l1.27-1.27A6.29 6.29 0 0 0 47.74 17a6.61 6.61 0 1 0 0 13.21 6 6 0 0 0 4.61-1.85 6 6 0 0 0 1.56-4.22 5.87 5.87 0 0 0-.1-1.13l-6.07.05zm45.31 1.4a4 4 0 0 0-3.64-2.71 4 4 0 0 0-4 4.25 4.16 4.16 0 0 0 4.22 4.25 4.23 4.23 0 0 0 3.54-1.88l-1.45-1a2.43 2.43 0 0 1-2.09 1.18 2.16 2.16 0 0 1-2.06-1.29l5.69-2.35-.21-.45zm-5.8 1.42a2.33 2.33 0 0 1 2.22-2.48 1.65 1.65 0 0 1 1.58.9l-3.8 1.58zM82.63 30h1.87V17.5h-1.87V30zm-3.06-7.3h-.07a3 3 0 0 0-2.24-1 4.26 4.26 0 0 0 0 8.51 2.9 2.9 0 0 0 2.24-1h.06v.61c0 1.63-.87 2.5-2.27 2.5a2.35 2.35 0 0 1-2.14-1.51l-1.63.68A4.05 4.05 0 0 0 77.29 34c2.19 0 4-1.29 4-4.43V22h-1.72v.7zm-2.14 5.88a2.59 2.59 0 0 1 0-5.16A2.4 2.4 0 0 1 79.7 26a2.38 2.38 0 0 1-2.28 2.58h.01zm24.38-11.08h-4.48V30h1.87v-4.74h2.61a3.89 3.89 0 1 0 0-7.76zm0 6H99.2v-4.26h2.65a2.145 2.145 0 1 1 0 4.29l-.04-.03zm11.53-1.8a3.5 3.5 0 0 0-3.33 1.91l1.66.69a1.77 1.77 0 0 1 1.7-.92 1.8 1.8 0 0 1 2 1.61v.13a4.13 4.13 0 0 0-1.95-.48c-1.79 0-3.6 1-3.6 2.81a2.89 2.89 0 0 0 3.1 2.75 2.63 2.63 0 0 0 2.4-1.2h.06v1h1.8v-4.81c0-2.19-1.66-3.46-3.79-3.46l-.05-.03zm-.23 6.85c-.61 0-1.46-.31-1.46-1.06 0-1 1.06-1.33 2-1.33a3.32 3.32 0 0 1 1.7.42 2.26 2.26 0 0 1-2.19 2l-.05-.03zM123.74 22l-2.14 5.42h-.06L119.32 22h-2l3.33 7.58-1.9 4.21h1.95L125.82 22h-2.08zm-16.81 8h1.87V17.5h-1.87V30z" fill="#FFF"/><path d="M10.44 7.55A2 2 0 0 0 10 9v22a2 2 0 0 0 .46 1.4l.07.07 12.36-12.32v-.29L10.51 7.48l-.07.07z" fill="#5BC9F4"/><path d="M27 24.27l-4.13-4.13v-.29L27 15.73l.09.05L32 18.56c1.4.79 1.4 2.09 0 2.89l-4.89 2.78-.11.04z" fill="url(#bja)"/><path d="M27.11 24.22L22.89 20 10.44 32.45a1.63 1.63 0 0 0 2.08.06l14.6-8.29" fill="url(#bjb)"/><path d="M27.11 15.78l-14.6-8.29a1.63 1.63 0 0 0-2.08.06L22.89 20l4.22-4.22z" fill="url(#bjc)"/></g></svg><svg id="hamburger" width="20" height="20" viewBox="0 0 20 20" x="1832" y="1174" xmlns="http://www.w3.org/2000/svg"><style>.bkst0{fill:#231f20}</style><path class="bkst0" d="M.1 9H20v2H.1zM0 18h19.9v2H0zM0 0h20v2H0z"/></svg><svg width="35" height="35" viewBox="0 0 35 35" id="instagram-social" x="1852" y="1194" xmlns="http://www.w3.org/2000/svg"><title>Icons/Social Media/Instagram</title><g transform="translate(8 8)" fill="#1A1A1A" fill-rule="evenodd"><path d="M1.76 5.483v8.034c0 2.051 1.654 3.714 3.694 3.714h8.092c2.04 0 3.695-1.662 3.695-3.714V5.483c0-2.051-1.655-3.714-3.695-3.714H5.454c-2.04 0-3.695 1.662-3.695 3.714zm-1.76 0C0 2.455 2.442 0 5.454 0h8.092C16.558 0 19 2.455 19 5.483v8.034C19 16.545 16.558 19 13.546 19H5.454C2.442 19 0 16.545 0 13.517V5.483z" fill-rule="nonzero"/><path d="M9.475 15.2a5.225 5.225 0 1 1 0-10.45 5.225 5.225 0 0 1 0 10.45zm0-1.838a3.387 3.387 0 1 0 0-6.774 3.387 3.387 0 0 0 0 6.774z" fill-rule="nonzero"/><circle cx="14.725" cy="4.275" r="1.425"/></g></svg><svg width="35" height="35" viewBox="0 0 35 35" id="instagram-social-hover" x="1887" y="1229" xmlns="http://www.w3.org/2000/svg"><title>Icons/Social Media/hover/Instagram</title><g transform="translate(8 8)" fill="#888" fill-rule="evenodd"><path d="M1.76 5.483v8.034c0 2.051 1.654 3.714 3.694 3.714h8.092c2.04 0 3.695-1.662 3.695-3.714V5.483c0-2.051-1.655-3.714-3.695-3.714H5.454c-2.04 0-3.695 1.662-3.695 3.714zm-1.76 0C0 2.455 2.442 0 5.454 0h8.092C16.558 0 19 2.455 19 5.483v8.034C19 16.545 16.558 19 13.546 19H5.454C2.442 19 0 16.545 0 13.517V5.483z" fill-rule="nonzero"/><path d="M9.475 15.2a5.225 5.225 0 1 1 0-10.45 5.225 5.225 0 0 1 0 10.45zm0-1.838a3.387 3.387 0 1 0 0-6.774 3.387 3.387 0 0 0 0 6.774z" fill-rule="nonzero"/><circle cx="14.725" cy="4.275" r="1.425"/></g></svg><svg id="instalogo" data-name="Layer 1" viewBox="0 0 45 44.8" width="45" height="44.8" x="1922" y="1264" xmlns="http://www.w3.org/2000/svg"><defs><style>.bncls-1{fill:#fff}</style></defs><title>instalogo</title><path class="bncls-1" d="M0 18.27h12.67c-1.39 5-.26 9.32 4.1 12.22a9.71 9.71 0 0 0 11.56 0c4.3-3 5.42-7.2 4-12.22H45v15.27a11.25 11.25 0 0 1-9.52 11.23 16.27 16.27 0 0 1-1.72.13H11.35a11.18 11.18 0 0 1-11.23-11c-.12-5.12 0-10.21 0-15.3-.12 0-.12-.13-.12-.33zM9.43 11.73h2.44V.1h21.95A11.3 11.3 0 0 1 45 11.07v3.5c-.26 0-.46.07-.66.07H30.51a1.2 1.2 0 0 1-.93-.4 10.48 10.48 0 0 0-13.88 0 1.68 1.68 0 0 1-.86.4H.25c0-1.26-.07-2.51 0-3.77a10.27 10.27 0 0 1 3.63-8c.13-.13.26-.2.4-.33a.29.29 0 0 1 .2-.07v9.25H7V1.49a.65.65 0 0 1 .58-.8C8.18.56 8.71.36 9.43.17v11.56zm29.34-2.91V7a1.24 1.24 0 0 0-1.32-1.39h-3.7A1.27 1.27 0 0 0 32.43 7v3.63a1.2 1.2 0 0 0 1.26 1.32 37.07 37.07 0 0 0 3.83 0 1.19 1.19 0 0 0 1.26-1.39 14.89 14.89 0 0 0-.01-1.74z" transform="translate(-.05 -.1)"/><path class="bncls-1" d="M22.52 15.69a6.21 6.21 0 1 1-6.21 6.21 6.25 6.25 0 0 1 6.21-6.21z" transform="translate(-.05 -.1)"/></svg><svg id="jcb" viewBox="0 0 46 28" width="46" height="28" x="1967" y="1309" xmlns="http://www.w3.org/2000/svg"><style>.bost0{stroke:#f2f2f2;stroke-miterlimit:10}.bost0,.bost1{fill:#fff}.bost2{fill:url(#boSVGID_1_)}.bost3{fill:url(#boSVGID_2_)}.bost4{fill:url(#boSVGID_3_)}.bost5{fill:url(#boSVGID_4_)}.bost6{fill:url(#boSVGID_5_)}</style><path class="bost0" d="M0 .5h45.5v27H0z"/><path class="bost1" d="M14.5 10.8h2.9c.1 0 .1 0 .1.1v4.6c-.1 1-.7 1.5-1.6 1.8-.7.4-1.5.4-2.2.5-1.1 0-2.3 0-3.4-.2-.4 0-.6-.1-1-.2v7.5H14.5c.5 0 .9-.1 1.2-.2 1.3-.5 2.3-1.8 2.3-3.3V3.5c0-.1 0-.1-.1-.1h-5c-.4 0-.9 0-1.2.1-1.4.5-2.3 1.9-2.3 3.4v8.5c0 .2.1.4.2.5 1 .4 1.9.7 2.9.6.5 0 .9-.1 1.2-.5.4-.4.6-.9.6-1.3v-4c.2.3.2.1.2.1zm4.8 14.3h5.1c.2 0 .5 0 .7-.1 1.5-.2 2.7-1.6 2.8-3v-1.3V3.8c0-.1 0-.1-.1-.1h-5c-.7 0-1.5.2-2.2.7-1 .7-1.5 1.7-1.5 2.9v4.6s.1 0 .1-.1c.2-.1.5-.4.7-.5.9-.4 1.7-.6 2.7-.6 1.5-.1 2.9 0 4.3.4.1 0 .1 0 .1.1v1.3s-.1 0-.1-.1c-.5-.2-1.1-.5-1.7-.6-.7-.1-1.5-.2-2.2 0-.9.2-1.5.7-1.7 1.6-.1.5-.1.9-.1 1.3.1.9.5 1.5 1.3 1.7.6.2 1.2.2 1.8.2.9-.1 1.7-.4 2.6-.7h.1v1.3c0 .1 0 .1-.1.1-.5.1-1 .2-1.5.2-1.3.2-2.7.2-4 0-.9-.1-1.7-.4-2.3-1 .2 3.1.2 5.8.2 8.6zm15.8-10.9c.5.1 1 .2 1.3.5.5.4.7 1 .6 1.6-.1.6-.5 1-1 1.2-.5.2-.9.2-1.3.2h-5.4c-.1 0-.1 0-.1.1V25h5.3c.2 0 .5 0 .7-.1 1.6-.4 2.8-1.8 2.8-3.5V3.6c0-.1 0-.1-.1-.1h-5c-.4 0-.6 0-1 .1-1.6.4-2.7 1.8-2.7 3.5v3.6h5.1c.5 0 1 .1 1.3.2.6.2 1 .7.9 1.5 0 .6-.4 1.1-1 1.5.1.1-.1.2-.4.3zM31 16.6c.1 0 .1 0 0 0h2.1c.7 0 1.1-.6.9-1.2-.1-.4-.5-.7-1-.7h-2v1.9zm0-4.7v1.7H32.9c.6 0 1-.6.7-1.1-.1-.4-.4-.6-.9-.6H31c.1 0 .1 0 0 0z"/><linearGradient id="boSVGID_1_" gradientUnits="userSpaceOnUse" x1="9.427" y1="15.574" x2="18.265" y2="15.574" gradientTransform="matrix(1 0 0 -1 0 30)"><stop offset="0" stop-color="#1c2b72"/><stop offset="1" stop-color="#006cb9"/></linearGradient><path class="bost2" d="M14.5 10.8V15c0 .5-.1 1-.6 1.3-.4.2-.7.4-1.2.5-1.1 0-2.1-.2-2.9-.6-.2-.4-.2-.4-.2-.6V7.1c0-1.6 1-2.9 2.4-3.4.4-.1.7-.1 1.2-.1h5c.1 0 .1 0 .1.1v17.9c0 1.5-1 2.8-2.3 3.3-.4.1-.9.2-1.2.2H9.5v-7.5c.4.1.6.1 1 .2 1.1.2 2.2.2 3.4.2.7 0 1.5-.1 2.2-.5.9-.4 1.3-1 1.6-1.8V15v-3.9c0-.1 0-.1-.1-.1h-2.8c-.2-.2-.3-.2-.3-.2z"/><linearGradient id="boSVGID_2_" gradientUnits="userSpaceOnUse" x1="19.359" y1="15.453" x2="28.205" y2="15.453" gradientTransform="matrix(1 0 0 -1 0 30)"><stop offset="0" stop-color="#6f2b2f"/><stop offset="1" stop-color="#e20138"/></linearGradient><path class="bost3" d="M19.3 25.1v-8.3c.7.6 1.5.9 2.3 1 1.3.2 2.7.2 4 0 .5-.1 1-.1 1.5-.2.1 0 .1 0 .1-.1v-1.3h-.1c-.9.4-1.7.6-2.6.7-.6 0-1.2 0-1.8-.2-.7-.4-1.2-1-1.3-1.7-.1-.5 0-.9.1-1.3.2-.9.9-1.3 1.7-1.6.7-.1 1.5-.1 2.2 0 .6.1 1.1.4 1.7.6 0 0 .1 0 .1.1v-.1-1.2c0-.1 0-.1-.1-.1-1.5-.4-2.8-.5-4.3-.4-.8 0-1.8.1-2.6.4-.2.1-.5.2-.7.5l-.1.1v-.1-4.5c0-1.2.5-2.2 1.5-2.9.5-.5 1.2-.7 2.1-.7h5c.1 0 .1 0 .1.1v18.2c-.1 1.5-1.3 2.8-2.8 3-.2 0-.5.1-.7.1h-5c-.1-.1-.1-.1-.3-.1z"/><linearGradient id="boSVGID_3_" gradientUnits="userSpaceOnUse" x1="29.291" y1="15.696" x2="38.121" y2="15.696" gradientTransform="matrix(1 0 0 -1 0 30)"><stop offset="0" stop-color="#017c40"/><stop offset="1" stop-color="#55b330"/></linearGradient><path class="bost4" d="M35.1 14.2c.2-.1.5-.1.6-.2.6-.2 1-.7 1-1.5 0-.6-.4-1.1-.9-1.5-.5-.2-.9-.2-1.3-.2h-5.1v-.1-3.5c0-1.7 1.1-3.2 2.7-3.5.4-.1.6-.1 1-.1h5c.1 0 .1 0 .1.1v17.8c0 1.7-1.2 3.2-2.8 3.5-.2 0-.5.1-.7.1h-5.2-.1V25v-7.1c0-.1 0-.1.1-.1h5.4c.5 0 1 0 1.3-.2.5-.2.9-.6 1-1.2.1-.6-.1-1.2-.6-1.6-.5-.4-1-.6-1.5-.6z"/><linearGradient id="boSVGID_4_" gradientUnits="userSpaceOnUse" x1="31.062" y1="14.297" x2="34.082" y2="14.297" gradientTransform="matrix(1 0 0 -1 0 30)"><stop offset="0" stop-color="#017c40"/><stop offset="1" stop-color="#55b330"/></linearGradient><path class="bost5" d="M31 16.6v-1.8h2c.5 0 .9.2 1 .7.1.6-.2 1.2-.9 1.2-.6-.1-1.4-.1-2.1-.1.1 0 .1 0 0 0z"/><linearGradient id="boSVGID_5_" gradientUnits="userSpaceOnUse" x1="31.066" y1="17.216" x2="33.842" y2="17.216" gradientTransform="matrix(1 0 0 -1 0 30)"><stop offset="0" stop-color="#017c40"/><stop offset="1" stop-color="#55b330"/></linearGradient><path class="bost6" d="M31 11.9c.1 0 .1 0 0 0h1.9c.5 0 .7.2.9.6.1.6-.2 1.1-.7 1.1h-1.8-.1c-.2-.6-.2-1.1-.2-1.7z"/></svg><svg id="launch-arrow-left" viewBox="0 0 27.5 49.6" width="27.5" height="49.6" x="2013" y="1337" xmlns="http://www.w3.org/2000/svg"><style>.bpst0{fill:#b4b4b4}</style><ellipse transform="rotate(-62.489 19.119 4.626)" class="bpst0" cx="19.1" cy="4.6" rx="1.8" ry="1.8"/><path transform="rotate(27.511 13.648 15.133)" class="bpst0" d="M11.8 3.3h3.6V27h-3.6z"/><ellipse transform="rotate(-27.511 19.12 44.96)" class="bpst0" cx="19.1" cy="45" rx="1.8" ry="1.8"/><path transform="rotate(-27.511 13.648 34.453)" class="bpst0" d="M11.8 22.6h3.6v23.7h-3.6z"/></svg><svg id="launch-arrow-right" viewBox="0 0 27.5 49.6" width="27.5" height="49.6" x="2041" y="1387" xmlns="http://www.w3.org/2000/svg"><style>.bqst0{fill:#b4b4b4}</style><ellipse transform="rotate(-27.511 8.362 4.631)" class="bqst0" cx="8.4" cy="4.6" rx="1.8" ry="1.8"/><path transform="rotate(-27.511 13.851 15.126)" class="bqst0" d="M12.1 3.3h3.6V27h-3.6z"/><ellipse transform="rotate(-62.489 8.328 45.005)" class="bqst0" cx="8.3" cy="45" rx="1.8" ry="1.8"/><path transform="rotate(-62.489 13.845 34.473)" class="bqst0" d="M2 32.7h23.7v3.6H2z"/></svg><svg width="18" height="18" viewBox="0 0 18 18" id="list-icon" x="2069" y="1437" xmlns="http://www.w3.org/2000/svg"><title>Artboard 1</title><path d="M0 0h4.9v4.9H0zM0 6.6h4.9v4.9H0zM0 13.1h4.9V18H0zM6.6 1.7h11.5v1.6H6.6zM6.6 8.2h11.5v1.6H6.6zM6.6 14.7h11.5v1.6H6.6z"/></svg><svg id="livechat-email" viewBox="0 0 18 13" width="18" height="13" x="2087" y="1455" xmlns="http://www.w3.org/2000/svg"><style>.bsst0{fill:#ccc}</style><path class="bsst0" d="M0 0v13h18V0H0zm9 8.3L1.7 1h14.6L9 8.3zM5.7 6.5L1 11.3V1.7l4.7 4.8zm.8.7L9 9.7l2.5-2.5 4.8 4.8H1.6l4.9-4.8zm5.7-.7L17 1.6v9.7l-4.8-4.8z"/></svg><svg id="livechat-paperclip" viewBox="0 0 7 14" width="7" height="14" x="2105" y="1468" xmlns="http://www.w3.org/2000/svg"><style>.btst0{fill:#ccc}</style><path class="btst0" d="M5.5 14h-4C.7 14 0 13.4 0 12.5v-11C0 .6.7 0 1.5 0h2C4.3 0 5 .6 5 1.5v8c0 .9-.7 1.5-1.5 1.5S2 10.4 2 9.5V5h1v4.5c0 .3.2.5.5.5s.5-.2.5-.5v-8c0-.3-.3-.5-.6-.5h-2c-.2 0-.5.2-.5.5v11c0 .3.3.5.6.5h4c.3 0 .5-.2.5-.5V3h1v9.5c0 .9-.7 1.5-1.5 1.5z"/></svg><svg id="low-stock" viewBox="0 0 16.1 16.1" width="16.1" height="16.1" x="2112" y="1482" xmlns="http://www.w3.org/2000/svg"><style>.bust0{fill:#ccc}.bust1{enable-background:new}.bust2{fill:#fff}</style><circle class="bust0" cx="8.1" cy="8.1" r="8"/><g class="bust1" id="buLayer_2"><path class="bust2" d="M7.9 10.1l-.4-5.3V2.6H9v2.2l-.4 5.3h-.7zm-.3 2.5v-1.4H9v1.4H7.6z"/></g></svg><svg id="mastercard" viewBox="0 0 46 28" width="46" height="28" x="2129" y="1499" xmlns="http://www.w3.org/2000/svg"><style>.bvst0{fill:#ff5f00}.bvst1{fill:#eb001b}.bvst2{fill:#f79e1b}.bvst3{fill:#fff}</style><path d="M0 0h46v27.9H0z"/><g id="bvXMLID_1_"><path class="bvst0" d="M18.9 4.3h8v13.1h-8z"/><path id="bvXMLID_13_" class="bvst1" d="M19.7 10.9c0-2.7 1.2-5 3.2-6.6-1.4-1.1-3.2-1.8-5.2-1.8-4.6 0-8.4 3.7-8.4 8.4s3.7 8.4 8.4 8.4c1.9 0 3.7-.7 5.2-1.8-2-1.6-3.2-4-3.2-6.6z"/><path class="bvst2" d="M35.6 16.1v-.3h.1v-.1h-.3v.1h.1l.1.3zm.5 0v-.3H36v.2l-.1-.2h-.1v.3h.1v-.2l.1.2.1-.2v.2zM36.4 10.9c0 4.6-3.7 8.4-8.4 8.4-1.9 0-3.7-.7-5.2-1.8 1.9-1.5 3.2-3.9 3.2-6.6 0-2.7-1.2-5-3.2-6.6C24.2 3.2 26 2.5 28 2.5c4.7 0 8.4 3.8 8.4 8.4z"/></g><path id="bvXMLID_14_" class="bvst3" d="M11 25.7v-1.9c0-.7-.4-1.2-1.2-1.2-.4 0-.8.1-1.1.5-.2-.3-.5-.5-1-.5-.3 0-.7.1-.9.4v-.4h-.5v3h.6V24c0-.5.3-.8.8-.8.4 0 .7.3.7.8v1.7H9V24c0-.5.3-.8.8-.8.4 0 .7.3.7.8v1.7h.5zm9.8-3h-1.1v-.9h-.6v.9h-.6v.5h.6v1.4c0 .7.2 1.1 1 1.1.3 0 .6-.1.8-.2l-.2-.5c-.2.1-.4.2-.6.2-.3 0-.5-.2-.5-.5v-1.4h1.1v-.6zm5.6-.1c-.4 0-.6.2-.8.4v-.4H25v3h.6V24c0-.5.2-.8.7-.8.1 0 .3 0 .4.1l.2-.6c-.2 0-.4-.1-.5-.1zm-8.5.4c-.3-.2-.7-.3-1.2-.3-.8 0-1.2.4-1.2 1 0 .5.3.8 1 .9h.3c.4.1.6.2.6.3 0 .2-.3.4-.7.4-.5 0-.8-.1-1-.3l-.3.5c.4.3 1 .4 1.3.4.9 0 1.3-.4 1.3-1 0-.5-.4-.8-1-.9h-.3c-.3 0-.5-.1-.5-.3 0-.2.2-.4.6-.4.4 0 .8.1.9.3l.2-.6zm9.2 1.2c0 .9.6 1.6 1.6 1.6.5 0 .8-.1 1.1-.4l-.4-.4c-.2.2-.5.3-.8.3-.5 0-.9-.4-.9-1s.4-1 .9-1c.3 0 .5.1.8.3l.3-.5c-.3-.3-.6-.4-1.1-.4-.9-.1-1.5.6-1.5 1.5zm-4.3-1.6c-.9 0-1.5.6-1.5 1.6s.6 1.6 1.5 1.6c.5 0 .9-.1 1.2-.4l-.3-.4c-.3.2-.6.3-.9.3-.4 0-.8-.2-.9-.8h2.2v-.3c.1-.9-.4-1.6-1.3-1.6zm0 .6c.4 0 .7.3.8.8H22c.1-.5.3-.8.8-.8zm-8.1 1v-1.5h-.6v.4c-.2-.3-.5-.4-1-.4-.8 0-1.5.7-1.5 1.6s.6 1.6 1.5 1.6c.4 0 .8-.2 1-.4v.4h.6v-1.7zm-2.4 0c0-.6.4-1 .9-1 .6 0 .9.4.9 1s-.4 1-.9 1c-.6 0-.9-.4-.9-1zm23.2-1.6c-.4 0-.6.2-.8.4v-.4H34v3h.6V24c0-.5.2-.8.7-.8.1 0 .3 0 .4.1l.2-.6c-.1 0-.3-.1-.4-.1zm4.8 2.7h.1s.1 0 .1.1c0 0 0 .1.1.1v.2s0 .1-.1.1c0 0-.1 0-.1.1h-.1-.1s-.1 0-.1-.1c0 0 0-.1-.1-.1v-.1-.1s0-.1.1-.1c0 0 .1 0 .1-.1h.1zm0 .5s.1 0 0 0c.1 0 .1 0 .2-.1v-.1-.1-.1-.1h-.1-.1-.1-.1v.4c.1.1.1.1.2.1-.1 0 0 0 0 0zm0-.3c.1 0 .1 0 0 0 .1 0 .1.1.1.1v.1h-.1l.1.1h-.1l-.1-.1v.1h-.1v-.3h.2zm0 0l.1.1c0-.1-.1-.1-.1-.1zm-7.2-1.3v-1.5h-.6v.4c-.2-.3-.5-.4-1-.4-.8 0-1.5.7-1.5 1.6s.6 1.6 1.5 1.6c.4 0 .8-.2 1-.4v.4h.6v-1.7zm-2.4 0c0-.6.4-1 .9-1 .6 0 .9.4.9 1s-.4 1-.9 1-.9-.4-.9-1zm8.5 0v-2.7h-.6v1.6c-.2-.3-.5-.4-1-.4-.8 0-1.5.7-1.5 1.6s.6 1.6 1.5 1.6c.4 0 .8-.2 1-.4v.4h.6v-1.7zm-2.4 0c0-.6.4-1 .9-1 .6 0 .9.4.9 1s-.4 1-.9 1c-.6 0-.9-.4-.9-1z"/></svg><svg id="minus" width="14" height="15" viewBox="0 0 14 15" x="2175" y="1527" xmlns="http://www.w3.org/2000/svg"><style>.bwst0{display:none}.bwst0,.bwst1{fill:#1d1d1b}</style><path class="bwst0" d="M6.1 1h1.7v14H6.1z"/><path transform="rotate(-90 7.008 8.008)" class="bwst1" d="M6.1 1h1.7v14H6.1z"/></svg><svg viewBox="0 0 10 10" width="10" height="10" id="minus2" x="2189" y="1542" xmlns="http://www.w3.org/2000/svg"><path d="M0 4.1h10v2H0z"/></svg><svg width="102" height="33" viewBox="0 0 102 33" id="our-apps" x="2199" y="1552" xmlns="http://www.w3.org/2000/svg"><title>Group 3</title><defs><path id="bya" d="M0 32.19h28.86V0H0z"/></defs><g transform="translate(-4 -3)" fill="none" fill-rule="evenodd"><path d="M49.348 26.168c-2.8 0-4.774-2.044-4.774-4.83s1.974-4.83 4.774-4.83 4.774 2.044 4.774 4.83-1.974 4.83-4.774 4.83zm0-1.456c1.876 0 3.094-1.456 3.094-3.374 0-1.932-1.218-3.374-3.094-3.374-1.89 0-3.094 1.442-3.094 3.374 0 1.918 1.204 3.374 3.094 3.374zM62.046 26h-1.47v-.896a3.24 3.24 0 0 1-2.394 1.064c-1.456 0-2.17-.756-2.17-2.142v-4.788h1.47v4.256c0 1.05.532 1.372 1.358 1.372.742 0 1.386-.42 1.736-.882v-4.746h1.47V26zm3.724 0H64.3v-6.762h1.47v.994c.504-.644 1.316-1.148 2.198-1.148v1.456a2.167 2.167 0 0 0-.462-.042c-.616 0-1.442.42-1.736.896V26zm16.128 0h-1.862l-.686-1.792h-4.284L74.38 26h-1.862l3.668-9.338h2.044L81.898 26zm-3.01-3.234l-1.68-4.452-1.68 4.452h3.36zm7.98 3.402c-.854 0-1.624-.378-2.17-1.106v3.514h-1.47v-9.338h1.47v.924a2.698 2.698 0 0 1 2.17-1.092c1.75 0 2.996 1.316 2.996 3.542s-1.246 3.556-2.996 3.556zm-.434-1.302c1.162 0 1.904-.938 1.904-2.254 0-1.302-.742-2.24-1.904-2.24-.686 0-1.414.406-1.736.91v2.674c.322.49 1.05.91 1.736.91zm8.876 1.302c-.854 0-1.624-.378-2.17-1.106v3.514h-1.47v-9.338h1.47v.924a2.698 2.698 0 0 1 2.17-1.092c1.75 0 2.996 1.316 2.996 3.542s-1.246 3.556-2.996 3.556zm-.434-1.302c1.162 0 1.904-.938 1.904-2.254 0-1.302-.742-2.24-1.904-2.24-.686 0-1.414.406-1.736.91v2.674c.322.49 1.05.91 1.736.91zm7.546 1.302c-1.148 0-2.198-.364-2.898-1.05l.672-1.064c.476.49 1.414.952 2.296.952.882 0 1.33-.378 1.33-.91 0-1.33-4.088-.378-4.088-2.968 0-1.106.952-2.058 2.66-2.058 1.148 0 2.016.406 2.632.952l-.616 1.036c-.406-.462-1.162-.812-2.002-.812-.77 0-1.26.35-1.26.826 0 1.204 4.088.308 4.088 2.996 0 1.19-.994 2.1-2.814 2.1z" fill="#1A1A1A"/><g transform="translate(4.44 3.7)"><path d="M24.42 30.525a.925.925 0 1 1-1.85 0 .925.925 0 0 1 1.85 0" fill="#FFF"/><mask id="byb" fill="#fff"><use xlink:href="#bya"/></mask><path d="M19.61 28.86h8.14V14.43h-8.14v14.43zm4.063 2.544a.84.84 0 1 1 0-1.68.84.84 0 0 1 0 1.68zm-4.694-17.839c-.183.214-.31.453-.384.663a1.86 1.86 0 0 0-.09.514c-.005 1.117.001 11.904.001 11.904H1.116v-.006H1.11V1.48h9.435l9.435-.006v.278c0 1.733 0 10.982.011 11.239-.03.004-.058.013-.087.019-.363.09-.683.287-.925.555zm-8.215 15.85a.903.903 0 0 1-.89-.914c0-.504.4-.913.89-.913.493 0 .892.409.892.913a.903.903 0 0 1-.892.915zM27.01 12.95h-5.92V1.85A1.85 1.85 0 0 0 19.24 0H1.85A1.85 1.85 0 0 0 0 1.85v26.64a1.85 1.85 0 0 0 1.85 1.85H18.5a1.85 1.85 0 0 0 1.85 1.85h6.66a1.85 1.85 0 0 0 1.85-1.85V14.8a1.85 1.85 0 0 0-1.85-1.85z" fill="#000" mask="url(#byb)"/></g></g></svg><svg width="102" height="33" viewBox="0 0 102 33" id="our-apps-hover" x="2301" y="1585" xmlns="http://www.w3.org/2000/svg"><title>Group 3</title><defs><path id="bza" d="M0 32.19h28.86V0H0z"/></defs><g transform="translate(-4 -3)" fill="none" fill-rule="evenodd"><path d="M49.348 26.168c-2.8 0-4.774-2.044-4.774-4.83s1.974-4.83 4.774-4.83 4.774 2.044 4.774 4.83-1.974 4.83-4.774 4.83zm0-1.456c1.876 0 3.094-1.456 3.094-3.374 0-1.932-1.218-3.374-3.094-3.374-1.89 0-3.094 1.442-3.094 3.374 0 1.918 1.204 3.374 3.094 3.374zM62.046 26h-1.47v-.896a3.24 3.24 0 0 1-2.394 1.064c-1.456 0-2.17-.756-2.17-2.142v-4.788h1.47v4.256c0 1.05.532 1.372 1.358 1.372.742 0 1.386-.42 1.736-.882v-4.746h1.47V26zm3.724 0H64.3v-6.762h1.47v.994c.504-.644 1.316-1.148 2.198-1.148v1.456a2.167 2.167 0 0 0-.462-.042c-.616 0-1.442.42-1.736.896V26zm16.128 0h-1.862l-.686-1.792h-4.284L74.38 26h-1.862l3.668-9.338h2.044L81.898 26zm-3.01-3.234l-1.68-4.452-1.68 4.452h3.36zm7.98 3.402c-.854 0-1.624-.378-2.17-1.106v3.514h-1.47v-9.338h1.47v.924a2.698 2.698 0 0 1 2.17-1.092c1.75 0 2.996 1.316 2.996 3.542s-1.246 3.556-2.996 3.556zm-.434-1.302c1.162 0 1.904-.938 1.904-2.254 0-1.302-.742-2.24-1.904-2.24-.686 0-1.414.406-1.736.91v2.674c.322.49 1.05.91 1.736.91zm8.876 1.302c-.854 0-1.624-.378-2.17-1.106v3.514h-1.47v-9.338h1.47v.924a2.698 2.698 0 0 1 2.17-1.092c1.75 0 2.996 1.316 2.996 3.542s-1.246 3.556-2.996 3.556zm-.434-1.302c1.162 0 1.904-.938 1.904-2.254 0-1.302-.742-2.24-1.904-2.24-.686 0-1.414.406-1.736.91v2.674c.322.49 1.05.91 1.736.91zm7.546 1.302c-1.148 0-2.198-.364-2.898-1.05l.672-1.064c.476.49 1.414.952 2.296.952.882 0 1.33-.378 1.33-.91 0-1.33-4.088-.378-4.088-2.968 0-1.106.952-2.058 2.66-2.058 1.148 0 2.016.406 2.632.952l-.616 1.036c-.406-.462-1.162-.812-2.002-.812-.77 0-1.26.35-1.26.826 0 1.204 4.088.308 4.088 2.996 0 1.19-.994 2.1-2.814 2.1z" fill="#888"/><g transform="translate(4.44 3.7)"><path d="M24.42 30.525a.925.925 0 1 1-1.85 0 .925.925 0 0 1 1.85 0" fill="#FFF"/><mask id="bzb" fill="#fff"><use xlink:href="#bza"/></mask><path d="M19.61 28.86h8.14V14.43h-8.14v14.43zm4.063 2.544a.84.84 0 1 1 0-1.68.84.84 0 0 1 0 1.68zm-4.694-17.839c-.183.214-.31.453-.384.663a1.86 1.86 0 0 0-.09.514c-.005 1.117.001 11.904.001 11.904H1.116v-.006H1.11V1.48h9.435l9.435-.006v.278c0 1.733 0 10.982.011 11.239-.03.004-.058.013-.087.019-.363.09-.683.287-.925.555zm-8.215 15.85a.903.903 0 0 1-.89-.914c0-.504.4-.913.89-.913.493 0 .892.409.892.913a.903.903 0 0 1-.892.915zM27.01 12.95h-5.92V1.85A1.85 1.85 0 0 0 19.24 0H1.85A1.85 1.85 0 0 0 0 1.85v26.64a1.85 1.85 0 0 0 1.85 1.85H18.5a1.85 1.85 0 0 0 1.85 1.85h6.66a1.85 1.85 0 0 0 1.85-1.85V14.8a1.85 1.85 0 0 0-1.85-1.85z" fill="#999" mask="url(#bzb)"/></g></g></svg><svg id="padlock" viewBox="0 0 20 22" width="20" height="22" x="2403" y="1618" xmlns="http://www.w3.org/2000/svg"><style>.cast0{fill:none;stroke:#000;stroke-width:2;stroke-miterlimit:10}</style><path d="M2.2 9.2h15.5v11.2H2.2z"/><path class="cast0" d="M4.9 9.8V7.3c0-2.8 2.3-5.1 5.1-5.1s5.1 2.3 5.1 5.1v2.5"/></svg><svg id="pagination-bullet" viewBox="0 0 22 22" width="22" height="22" x="2423" y="1640" xmlns="http://www.w3.org/2000/svg"><style>.cbst0{fill:#fff;stroke:#ccc;stroke-miterlimit:10}</style><circle class="cbst0" cx="11" cy="11" r="9.7"/></svg><svg id="pagination-bullet-active" viewBox="0 0 22 22" width="22" height="22" x="2445" y="1662" xmlns="http://www.w3.org/2000/svg"><style>.ccst0,.ccst1{fill:none;stroke:#ccc;stroke-miterlimit:10}.ccst1{fill:#ccc;stroke:#fff;stroke-width:3}</style><circle class="ccst0" cx="11" cy="11" r="9.7"/><circle class="ccst1" cx="11" cy="11" r="8.9"/></svg><svg id="pagination-bullet-active-sa" viewBox="0 0 22 22" width="22" height="22" x="2467" y="1684" xmlns="http://www.w3.org/2000/svg"><style>.cdst0{fill:#ccc}</style><circle class="cdst0" cx="11" cy="11" r="9.6"/></svg><svg id="pagination-bullet-sa" viewBox="0 0 22 22" width="22" height="22" x="2489" y="1706" xmlns="http://www.w3.org/2000/svg"><style>.cest0{fill:#fff;stroke:#b4b4b4;stroke-width:1.8;stroke-miterlimit:10}</style><circle class="cest0" cx="11" cy="11" r="9.3"/></svg><svg id="paypal" width="46" height="28" viewBox="0 0 46 28" x="2511" y="1728" xmlns="http://www.w3.org/2000/svg"><style>.cfst0{fill:#fff}.cfst1{fill:#f2f2f2}.cfst2{fill:#009cde}.cfst3{fill:#003087}</style><path class="cfst0" d="M.5.5h45v27H.5z"/><path class="cfst1" d="M45 1v26H1V1h44m1-1H0v28h46V0z"/><path class="cfst2" d="M29.6 9.3h-2.8c-.2 0-.4.1-.4.3l-1.1 7.2c0 .1.1.2.2.3H27c.1 0 .2-.1.3-.2l.3-2c0-.2.2-.3.4-.3h.9c1.6.2 3-1 3.2-2.5V12c.2-.6 0-1.3-.4-1.8-.6-.7-1.3-.9-2.1-.9m.3 2.7c-.2 1-.9 1-1.7 1h-.4l.3-1.9c0-.1.1-.2.2-.2h.2c.4-.1.9 0 1.2.3.3.2.3.5.2.8"/><path class="cfst3" d="M9.6 9.3H6.8c-.2 0-.4.1-.4.3l-1.1 7.2c0 .1.1.2.2.3h1.3c.2 0 .4-.1.4-.3l.3-1.9c0-.2.2-.3.4-.3h.9c1.6.2 3-1 3.2-2.5V12c.2-.6 0-1.3-.4-1.8-.5-.7-1.2-.9-2-.9m.3 2.7c-.2 1-.9 1-1.7 1h-.3l.3-1.9c0-.1.1-.2.2-.2h.2c.4-.1.9 0 1.2.3.2.2.2.5.1.8M18 11.9h-1.3c-.1 0-.2.1-.2.2l-.1.4-.1-.1c-.4-.4-1-.6-1.6-.6-1.5 0-2.8 1.2-3 2.7-.1.7 0 1.5.5 2.1.4.5 1.1.7 1.7.7.7 0 1.4-.3 1.9-.8l-.1.4c0 .1.1.2.2.3h1.2c.2 0 .4-.1.4-.3l.7-4.6c.1-.2 0-.3-.2-.4m-1.9 2.6c-.1.7-.8 1.3-1.5 1.3-.6.1-1.1-.4-1.1-.9v-.4c.1-.7.7-1.3 1.5-1.3.3 0 .7.1.9.4.2.3.3.6.2.9"/><path class="cfst2" d="M38 11.9h-1.3c-.1 0-.2.1-.2.2l-.1.4-.1-.1c-.4-.4-1-.6-1.6-.6-1.5 0-2.8 1.2-3 2.7-.1.7 0 1.5.5 2.1.4.5 1.1.7 1.7.7.7 0 1.4-.3 1.9-.8l-.1.4c0 .1.1.2.2.3h1.2c.2 0 .4-.1.4-.3l.7-4.6c.1-.2 0-.3-.2-.4m-1.9 2.6c-.1.7-.8 1.3-1.5 1.3-.6.1-1.1-.4-1.1-.9v-.4c.1-.7.7-1.3 1.5-1.3.3 0 .7.1.9.4.2.3.3.6.2.9"/><path class="cfst3" d="M25.2 11.9h-1.3c-.1 0-.2.1-.3.2l-1.9 2.7-.8-2.6c0-.2-.2-.3-.4-.3h-1.3c-.1 0-.2.1-.2.2v.1l1.5 4.4-1.4 2c-.1.1 0 .3.1.3H20.6c.1 0 .2-.1.3-.2l4.5-6.5c.1-.1 0-.3-.1-.3h-.1"/><path class="cfst2" d="M39.6 9.5l-1.2 7.3c0 .1.1.2.2.3h1.2c.2 0 .4-.1.4-.3l1.1-7.2c0-.1-.1-.2-.2-.3h-1.3c-.1 0-.2.1-.2.2"/></svg><svg id="paypal2" viewBox="0 0 62 20" width="62" height="20" x="2557" y="1756" xmlns="http://www.w3.org/2000/svg"><style>.cgst0{fill:#009cde}.cgst1{fill:#003087}</style><path class="cgst0" d="M41.2 2.3h-4.5c-.3 0-.6.2-.6.5l-1.8 11.6c0 .2.1.4.4.4H37c.2 0 .4-.2.4-.4l.5-3.3c0-.3.3-.5.6-.5h1.4c3 0 4.7-1.4 5.1-4.3.2-1.2 0-2.2-.6-2.9-.6-.7-1.7-1.1-3.2-1.1m.5 4.2c-.2 1.6-1.5 1.6-2.7 1.6h-.7l.5-3c0-.2.2-.3.4-.3h.3c.8 0 1.6 0 2 .5.2.2.3.6.2 1.2"/><path class="cgst1" d="M8.9 2.3H4.4c-.3 0-.6.2-.6.5L2 14.4c0 .2.1.4.4.4h2.2c.3 0 .6-.2.6-.5l.5-3.1c0-.3.3-.5.6-.5h1.4c3 0 4.7-1.4 5.1-4.3.2-1.2 0-2.2-.6-2.9-.6-.8-1.8-1.2-3.3-1.2m.5 4.2C9.2 8.1 8 8.1 6.8 8.1h-.7l.5-3c0-.2.2-.3.4-.3h.3c.8 0 1.6 0 2 .5.2.2.2.6.1 1.2M22.4 6.4h-2.2c-.2 0-.3.1-.4.3l-.1.6-.2-.2c-.5-.7-1.5-.9-2.6-.9-2.4 0-4.4 1.8-4.8 4.4-.2 1.3.1 2.5.8 3.3.7.8 1.6 1.1 2.7 1.1 1.9 0 3-1.2 3-1.2l-.1.6c0 .2.1.4.4.4H21c.3 0 .6-.2.6-.5l1.2-7.4c0-.3-.1-.5-.4-.5m-3 4.3c-.2 1.2-1.2 2.1-2.4 2.1-.6 0-1.1-.2-1.5-.6-.3-.4-.4-.9-.3-1.5.2-1.2 1.2-2.1 2.4-2.1.6 0 1.1.2 1.4.6.4.3.5.9.4 1.5"/><path class="cgst0" d="M54.7 6.4h-2.2c-.2 0-.3.1-.4.3l-.1.7-.2-.2c-.5-.7-1.5-.9-2.6-.9-2.4 0-4.4 1.8-4.8 4.4-.2 1.3.1 2.5.8 3.3.8.7 1.7 1 2.8 1 1.9 0 3-1.2 3-1.2l-.1.6c0 .2.1.4.4.4h1.9c.3 0 .6-.2.6-.5L55 6.9c.1-.3-.1-.5-.3-.5m-3.1 4.3c-.2 1.2-1.2 2.1-2.4 2.1-.6 0-1.1-.2-1.5-.6-.3-.4-.4-.9-.3-1.5.2-1.2 1.2-2.1 2.4-2.1.6 0 1.1.2 1.4.6.4.3.5.9.4 1.5"/><path class="cgst1" d="M34 6.4h-2.2c-.2 0-.4.1-.5.3l-3 4.4L27 6.9c-.1-.3-.3-.4-.6-.4h-2.1c-.3 0-.4.3-.4.5l2.4 7-2.3 3.1c-.2.2 0 .6.3.6h2.2c.2 0 .4-.1.5-.3L34.3 7c.1-.2 0-.6-.3-.6"/><path class="cgst0" d="M57.2 2.6l-1.9 11.8c0 .2.1.4.4.4h1.9c.3 0 .6-.2.6-.5L60 2.7c0-.2-.1-.4-.4-.4h-2.1c-.1 0-.3.1-.3.3"/></svg><svg id="paypal3" data-name="Layer 1" viewBox="0 0 107 28" width="107" height="28" x="2619" y="1776" xmlns="http://www.w3.org/2000/svg"><defs><style>.chcls-1{fill:none}.chcls-2{clip-path:url(#chclip-path)}.chcls-3{fill:#fff}.chcls-4{fill:#253b80}.chcls-5{fill:#9fc2dc}.chcls-6{fill:#dbe9f1}</style><clipPath id="chclip-path"><path class="chcls-1" d="M0 0h107v28.48H0z"/></clipPath></defs><title>paypal3</title><g class="chcls-2"><path class="chcls-3" d="M40.56 11.35c-.32 2.12-1.94 2.12-3.51 2.12h-.89l.62-4a.49.49 0 0 1 .49-.42h.41c1.07 0 2.07 0 2.59.61a2 2 0 0 1 .29 1.64m-.68-5.48H34a.82.82 0 0 0-.81.69l-2.41 15.14a.49.49 0 0 0 .49.57h2.82a.82.82 0 0 0 .81-.69l.64-4.08a.82.82 0 0 1 .81-.69h1.87c3.89 0 6.13-1.88 6.72-5.61a4.55 4.55 0 0 0-.75-3.81 5.48 5.48 0 0 0-4.3-1.51M53.58 16.78a3.15 3.15 0 0 1-3.19 2.7A2.19 2.19 0 0 1 48 16.73 3.16 3.16 0 0 1 51.21 14a2.38 2.38 0 0 1 1.88.77 2.45 2.45 0 0 1 .48 2m3.94-5.5h-2.82a.49.49 0 0 0-.49.42l-.13.79-.2-.29c-.61-.89-2-1.19-3.34-1.19a6.5 6.5 0 0 0-6.31 5.68A5.33 5.33 0 0 0 45.29 21a4.42 4.42 0 0 0 3.56 1.44 5.41 5.41 0 0 0 3.91-1.62l-.13.79a.49.49 0 0 0 .49.57h2.55a.82.82 0 0 0 .81-.69L58 11.85a.49.49 0 0 0-.48-.57M72.57 11.28h-2.84a.82.82 0 0 0-.68.36l-3.92 5.77-1.66-5.54a.82.82 0 0 0-.79-.58h-2.79a.49.49 0 0 0-.47.65l3.13 9.18-2.94 4.15A.49.49 0 0 0 60 26h2.84a.82.82 0 0 0 .67-.35L73 12.05a.49.49 0 0 0-.4-.77M82.65 11.35c-.32 2.12-1.94 2.12-3.51 2.12h-.88l.63-4a.49.49 0 0 1 .48-.42h.41c1.06 0 2.07 0 2.59.61a2 2 0 0 1 .29 1.64M82 5.82h-5.9a.82.82 0 0 0-.81.69l-2.42 15.14a.49.49 0 0 0 .48.57h3a.57.57 0 0 0 .65-.49l.68-4.29a.82.82 0 0 1 .81-.69h1.81c3.89 0 6.13-1.88 6.72-5.61a4.54 4.54 0 0 0-.75-3.81A5.47 5.47 0 0 0 82 5.82M95.67 16.78a3.15 3.15 0 0 1-3.19 2.7 2.19 2.19 0 0 1-2.34-2.75A3.16 3.16 0 0 1 93.31 14a2.38 2.38 0 0 1 1.88.77 2.43 2.43 0 0 1 .48 2m3.94-5.5h-2.83a.49.49 0 0 0-.48.42l-.13.79-.17-.28c-.64-.89-2-1.2-3.36-1.2a6.5 6.5 0 0 0-6.31 5.68A5.34 5.34 0 0 0 87.38 21a4.42 4.42 0 0 0 3.56 1.44 5.41 5.41 0 0 0 3.91-1.62l-.13.79a.49.49 0 0 0 .49.57h2.54a.82.82 0 0 0 .81-.69l1.53-9.67a.49.49 0 0 0-.49-.57M102.94 6.24l-2.42 15.41a.49.49 0 0 0 .48.57h2.44a.82.82 0 0 0 .81-.69l2.39-15.13a.49.49 0 0 0-.49-.57h-2.73a.49.49 0 0 0-.48.42"/><path class="chcls-4" d="M6.27 25.16l.45-2.87H.92L4.25 1.11a.28.28 0 0 1 .09-.16.27.27 0 0 1 .18-.07h8.09c2.69 0 4.54.56 5.51 1.66A3.79 3.79 0 0 1 19 4.2a6 6 0 0 1 0 2.28v.65l.45.26a3.18 3.18 0 0 1 .92.7 3.26 3.26 0 0 1 .75 1.67 7.08 7.08 0 0 1-.12 2.43 8.55 8.55 0 0 1-1 2.75 5.65 5.65 0 0 1-1.57 1.73 6.39 6.39 0 0 1-2.12 1 10.58 10.58 0 0 1-2.65.31H13a1.89 1.89 0 0 0-1.87 1.6v.26l-.8 5.05v.19a.16.16 0 0 1-.05.11.13.13 0 0 1-.08 0H6.27z"/><path class="chcls-5" d="M19.89 6.62c0 .15-.05.31-.08.47-1.07 5.48-4.72 7.37-9.38 7.37H8a1.15 1.15 0 0 0-1.14 1l-1.17 7.69-.34 2.19a.61.61 0 0 0 .6.7h4.21a1 1 0 0 0 1-.85v-.21l.79-5 .05-.32a1 1 0 0 1 1-.86h.63c4.08 0 7.28-1.66 8.21-6.45.39-2 .19-3.68-.84-4.85a4 4 0 0 0-1.15-.89"/><path class="chcls-6" d="M18.77 6.17l-.5-.17-.53-.1a13.21 13.21 0 0 0-2.09-.15H9.3a1 1 0 0 0-1 .86l-1.35 8.58v.25a1.15 1.15 0 0 1 1.14-1h2.37c4.66 0 8.32-1.89 9.38-7.37 0-.16.06-.32.08-.47a5.66 5.66 0 0 0-.92-.35l-.24-.08"/><path class="chcls-3" d="M8.3 6.64a1 1 0 0 1 1-.86h6.34a13.2 13.2 0 0 1 2.09.15l.54.07.5.13.23.12a5.76 5.76 0 0 1 .88.37A5.18 5.18 0 0 0 18.79 2C17.58.63 15.4 0 12.62 0h-8.1a1.16 1.16 0 0 0-1.14 1L0 22.35a.7.7 0 0 0 .69.8h5l1.25-8z"/></g></svg><svg id="pen" viewBox="0 0 32 32" width="32" height="32" x="2726" y="1804" xmlns="http://www.w3.org/2000/svg"><style>.cist0{fill:none;stroke:#000;stroke-width:1.4;stroke-miterlimit:10}</style><path transform="rotate(45.001 18.169 16.127)" d="M15 2.3h6.3v27.6H15z"/><path transform="rotate(45.001 14.18 12.138)" d="M13.2-1.6h1.9V26h-1.9z"/><path transform="rotate(45.001 24.844 3.887)" d="M22.2 3.5h5.3v.8h-5.3z"/><path transform="rotate(45.001 5.928 22.802)" d="M3.3 22.4h5.3v.8H3.3z"/><path class="cist0" d="M1.9 30.3l.7-6.1L8 29.6z"/></svg><svg id="plus" width="14" height="15" viewBox="0 0 14 15" x="2758" y="1836" xmlns="http://www.w3.org/2000/svg"><style>.cjst0{fill:#1d1d1b}</style><path class="cjst0" d="M6.1 1h1.7v14H6.1z"/><path transform="rotate(-90 7.008 8.008)" class="cjst0" d="M6.1 1h1.7v14H6.1z"/></svg><svg viewBox="0 0 10 10" width="10" height="10" id="plus2" x="2772" y="1851" xmlns="http://www.w3.org/2000/svg"><path d="M0 4.1h10v2H0z"/><path d="M4 0h2v10H4z"/></svg><svg viewBox="0 0 18 18" width="18" height="18" id="productdisplaylg" x="2782" y="1861" xmlns="http://www.w3.org/2000/svg"><path d="M0 0h18v18H0z"/></svg><svg viewBox="0 0 18 18" width="18" height="18" id="productdisplaysm" x="2800" y="1879" xmlns="http://www.w3.org/2000/svg"><path d="M0 0h8v8H0zM10 0h8v8h-8zM0 10h8v8H0zM10 10h8v8h-8z"/></svg><svg viewBox="0 0 19.86 15.72" width="19.86" height="15.72" id="quote-close" x="2818" y="1897" xmlns="http://www.w3.org/2000/svg"><defs><style>.cncls-1{fill:#1a1a1a}</style></defs><title>quote_bottom</title><g id="cnLayer_2" data-name="Layer 2"><path class="cncls-1" d="M.3 13.38a10 10 0 0 0 4.32-5.64 3.89 3.89 0 0 1-1 .18A3.58 3.58 0 0 1 0 4.14 4.14 4.14 0 0 1 4.08 0c2.46 0 4.68 2 4.68 5.46a12.86 12.86 0 0 1-5.64 10.26zm11.1 0a10 10 0 0 0 4.32-5.64 3.89 3.89 0 0 1-1 .18 3.58 3.58 0 0 1-3.6-3.78A4.14 4.14 0 0 1 15.18 0c2.46 0 4.68 2 4.68 5.46a12.86 12.86 0 0 1-5.64 10.26z" id="cnLayer_1-2" data-name="Layer 1"/></g></svg><svg viewBox="0 0 19.8 15.66" width="19.8" height="15.66" id="quote-open" x="2838" y="1913" xmlns="http://www.w3.org/2000/svg"><defs><style>.cocls-1{fill:#1a1a1a}</style></defs><title>quote_top</title><g id="coLayer_2" data-name="Layer 2"><path class="cocls-1" d="M8.46 2.28c-1.92 1.14-4 3.6-4.32 5.64a3.55 3.55 0 0 1 1-.12 3.57 3.57 0 0 1 3.56 3.78 4.08 4.08 0 0 1-4.08 4.08c-2.46 0-4.62-2-4.62-5.46A12.69 12.69 0 0 1 5.58 0zm11.1 0c-1.92 1.14-4 3.6-4.32 5.64a3.63 3.63 0 0 1 4.56 3.66 4.08 4.08 0 0 1-4.08 4.08c-2.46 0-4.62-2-4.62-5.46A12.69 12.69 0 0 1 16.68 0z" id="coLayer_1-2" data-name="Layer 1"/></g></svg><svg id="rate-bad" viewBox="0 0 46 40" width="46" height="40" x="2858" y="1929" xmlns="http://www.w3.org/2000/svg"><style>.cpst0{fill:#1a1a1a}</style><path class="cpst0" d="M35.9.6h1.4c.6 0 1.2.3 1.5.9 2.1 3.6 6 15.3 6 17.7 0 .7-1.5 1.4-2.8 1.4h-4.8c-1.7 0-3-1.4-3-3v-14c0-1.7 0-3 1.7-3zM2.2 17.8C.8 20 .9 21.4 2.1 23.3c1 1.6 3.1 1.4 3.4 1.4h11.6c-1.7 5.4-1.3 7.2-.5 10.2 1.3 3.3 3 3.7 5.2 4.1 3.2.1 3.5-2.4 3.5-4.7-.3-2.3.2-3.7.6-4.8s1.5-2.6 3.3-5.1c2.2-2.7 1.9-4.4 1.9-4.4V3.1C30.4.7 28.5.6 28.5.6S11.8.4 8.2.9C4.9 2.1 5.3 4.5 5.3 5.4c0 .2.3.6-.1.9-2.8 2.3-1.4 5.2-1.4 5.2s.3.5-.3.9c-1.6 1.4-1.4 2.7-1.2 3.7.5 1.2.1 1.1-.1 1.7zm.5 2.6c0-1.4 1.1-2.5 2.5-2.5h2.1c-1.4 0-3.8-1.1-3.8-2.5v-.2c0-1.4 1.1-2.5 2.5-2.5h2.6c-1.4 0-3.8-1.1-3.8-2.5v-.6c0-1.4 1.1-2.5 2.5-2.5H9L7.6 7c-.6-.5-.9-1.2-.9-2.1v-.3c0-1.4 1.2-2.4 2.5-2.5 0 0 .8-.1 1.1-.1h16.5c1.4 0 2.5 1.1 2.5 2.5v16.1c0 .7-.3 1.3-.7 1.8L24.9 28s-1.6 2.7-1.2 5.4c0 2.7-.2 4.1-1.7 4.1-1.4-.3-2.6-.4-3.9-3.2-.6-2.8-1.1-3.9.3-7.6.5-1.8.8-2.9.9-3.5H5.2c-1.4 0-2.5-1.1-2.5-2.5v-.3z"/></svg><svg id="rate-good" viewBox="0 0 46 40" width="46" height="40" x="2904" y="1969" xmlns="http://www.w3.org/2000/svg"><style>.cqst0{fill:#1a1a1a}</style><path class="cqst0" d="M10.1 39H8.7c-.6 0-1.2-.3-1.5-.9-2.1-3.6-6-15.3-6-17.7 0-.7 1.5-1.4 2.8-1.4h4.8c1.7 0 3 1.4 3 3v14c0 1.7 0 3-1.7 3zM43.8 21.8c1.4-2.2 1.3-3.6.1-5.5-1-1.6-3.1-1.4-3.4-1.4H28.9c1.7-5.4 1.3-7.2.5-10.2-1.3-3.3-3-3.7-5.2-4.1C21 .5 20.7 3 20.7 5.3c.3 2.3-.2 3.7-.6 4.8-.4 1.1-1.5 2.6-3.3 5.1-2.2 2.7-1.9 4.4-1.9 4.4v16.9c.7 2.4 2.6 2.5 2.6 2.5s16.7.2 20.3-.3c3.3-1.2 2.9-3.6 2.9-4.5 0-.2-.3-.6.1-.9 2.8-2.3 1.4-5.2 1.4-5.2s-.3-.5.3-.9c1.6-1.4 1.4-2.7 1.2-3.7-.5-1.2-.1-1.1.1-1.7zm-.5-2.6c0 1.4-1.1 2.5-2.5 2.5h-2.1c1.4 0 3.8 1.1 3.8 2.5v.2c0 1.4-1.1 2.5-2.5 2.5h-2.6c1.4 0 3.8 1.1 3.8 2.5v.6c0 1.4-1.1 2.5-2.5 2.5H37l1.4.1c.6.5.9 1.2.9 2.1v.3c0 1.4-1.2 2.4-2.5 2.5 0 0-.8.1-1.1.1H19.2c-1.4 0-2.5-1.1-2.5-2.5V19c0-.7.3-1.3.7-1.8l3.7-5.6s1.6-2.7 1.2-5.4c0-2.7.2-4.1 1.7-4.1 1.4.3 2.6.4 3.9 3.2.6 2.8 1.1 3.9-.3 7.6-.5 1.8-.8 2.9-.9 3.5h14.1c1.4 0 2.5 1.1 2.5 2.5v.3z"/></svg><svg width="17" height="16" viewBox="0 0 17 16" id="review-star" x="2950" y="2009" xmlns="http://www.w3.org/2000/svg"><title>Star</title><path fill="#FFD203" d="M8.395 13.263l-5.188 2.733.99-5.788L0 6.11l5.801-.845L8.395 0l2.595 5.265 5.8.845-4.197 4.098.991 5.788z" fill-rule="evenodd"/></svg><svg id="scroll-arrow" viewBox="0 0 54 32" width="54" height="32" x="2967" y="2025" xmlns="http://www.w3.org/2000/svg"><style>.csst0{fill:#fff}</style><path transform="rotate(32.221 15.5 17.312)" class="csst0" d="M.7 15.3h29.7v4.1H.7z"/><path transform="rotate(147.779 38.5 17.313)" class="csst0" d="M23.7 15.3h29.7v4.1H23.7z"/></svg><svg viewBox="0 0 54 32" width="54" height="32" id="scroll-arrow-black" x="3021" y="2057" xmlns="http://www.w3.org/2000/svg"><path d="M1.863 11.152l2.186-3.468L29.175 23.52l-2.186 3.468z"/><path d="M24.814 23.52L49.941 7.686l2.186 3.468L27 26.99z"/></svg><svg id="scroll-arrow-white" viewBox="0 0 54 32" width="54" height="32" x="3075" y="2089" xmlns="http://www.w3.org/2000/svg"><style>.cust0{fill:#fff}</style><path transform="rotate(32.221 15.5 17.312)" class="cust0" d="M.7 15.3h29.7v4.1H.7z"/><path transform="rotate(147.779 38.5 17.313)" class="cust0" d="M23.7 15.3h29.7v4.1H23.7z"/></svg><svg id="search" width="19.8" height="25" viewBox="0 0 19.8 25" x="3129" y="2121" xmlns="http://www.w3.org/2000/svg"><style>.cvst0{fill:none;stroke:#1d1d1b;stroke-width:2;stroke-miterlimit:10}.cvst1{fill:#1d1d1b}</style><path class="cvst0" d="M18.9 23.8l-6.4-9.3"/><path class="cvst1" d="M8.5 2c.4 0 .8 0 1.2.1 1.7.3 3.2 1.3 4.2 2.7S15.3 8 15 9.7c-.6 3.1-3.2 5.4-6.4 5.4-.4 0-.8 0-1.2-.1-3.5-.6-5.9-4-5.3-7.6C2.7 4.3 5.4 2 8.5 2m0-2C4.5 0 .9 2.9.1 7c-.8 4.6 2.3 9 6.9 9.9.5.1 1 .1 1.5.1 4 0 7.6-2.9 8.4-7 .8-4.6-2.3-9-6.9-9.9C9.5 0 9 0 8.5 0z"/></svg><svg id="star" viewBox="0 0 16.1 16.1" width="16.1" height="16.1" x="3149" y="2146" xmlns="http://www.w3.org/2000/svg"><style>.cwst0{fill:#ccc}.cwst1{enable-background:new}.cwst2{fill:#fff}</style><circle class="cwst0" cx="8.1" cy="8.1" r="8"/><g class="cwst1" id="cwLayer_2"><path class="cwst2" d="M11.5 13.1l-3.6-2.6-3.6 2.6 1.4-4.2-3.6-2.6h4.5L7.9 2l1.4 4.2h4.5l-3.6 2.6 1.3 4.3z"/></g></svg><svg id="symantec" width="75" height="28" viewBox="0 0 75 28" x="3166" y="2163" xmlns="http://www.w3.org/2000/svg"><style>.cxst0{fill:#fdb511}</style><path class="cxst0" d="M19 3.9v.6h.6v-.6H19zm0 1.2v.6h.6v-.6H19zm-1.9.7v.6h.6v-.6h-.6zM9 6.2c-4.9 0-8.9 4-8.9 8.9S4.1 24 9 24s8.9-4 8.9-8.9-4-8.9-8.9-8.9zm0 2.9c3.4 0 6.1 2.7 6.1 6.1s-2.7 6.1-6.1 6.1-6.1-2.7-6.1-6.1S5.6 9.1 9 9.1z"/><path d="M23.1 19.9c-1.3 0-2.4-.3-3.2-1l.8-1.4c.7.5 1.5.7 2.4.7.4 0 .8-.1 1-.2.2-.2.4-.4.4-.7v-.2l-.1-.2-.1-.2s-.1-.1-.2-.1-.2-.1-.2-.1c-.1 0-.2-.1-.3-.1-.1 0-.2-.1-.3-.1-.1 0-.2-.1-.4-.1-.2-.1-.3-.1-.4-.1-.3-.1-.6-.2-.8-.3-.2-.1-.4-.3-.7-.5-.2-.2-.4-.4-.5-.7-.1-.3-.2-.7-.2-1 0-.8.3-1.4.8-1.8.5-.4 1.3-.7 2.2-.7 1.1 0 2 .2 2.6.6l-.6 1.4c-.6-.3-1.3-.4-1.9-.4-.9 0-1.3.3-1.3.8 0 .1 0 .2.1.3 0 .1.1.2.2.2.1.1.2.1.3.2.2.1.3.1.4.1.1 0 .3.1.5.2.1 0 .2.1.2.1.3.1.5.2.7.3.2.1.4.2.7.4.2.1.5.3.6.5.2.2.3.4.4.7.1.3.2.6.2 1 0 .8-.3 1.4-.8 1.9-.7.3-1.5.5-2.5.5M29.4 20.1L27 13.3h2l1.2 4.7 1-4.7H33l-1.9 6.5c-.4 1.5-1.4 2.3-2.8 2.3-.3 0-.7 0-1.1-.1l.2-1.3h.6c.3 0 .6-.1.8-.2.3 0 .4-.2.6-.4M39.2 14.2c.6-.7 1.3-1 2-1s1.1.2 1.4.7c.3.4.4 1 .4 1.7v4.2h-1.9v-4.3c0-.5-.2-.8-.6-.8-.3 0-.7.2-1.1.5v4.5h-1.9v-4.3c0-.5-.2-.8-.6-.8-.4 0-.7.2-1.1.5v4.5H34v-6.4h1.2l.4 1c.7-.8 1.4-1.1 2.1-1.1.7.1 1.2.4 1.5 1.1M47.7 15.7v-.2c0-.3-.1-.5-.2-.6-.1-.1-.3-.2-.7-.2-.5 0-1.1.2-1.8.5l-.6-1.2c.8-.5 1.7-.7 2.6-.7.9 0 1.5.2 1.9.6.4.4.7 1 .7 1.8v4.2h-1.2c-.2-.5-.3-.7-.3-.7-.6.5-1.2.8-1.9.8-.6 0-1.1-.2-1.4-.5-.4-.3-.6-.8-.6-1.4 0-.7.2-1.2.7-1.5.5-.5 1.4-.7 2.8-.9m0 2.5v-1.4c-.8.2-1.3.3-1.5.5-.1.1-.2.3-.2.5 0 .5.2.7.7.7.4.1.7-.1 1-.3M51.1 19.8v-6.4h1.2l.4 1c.7-.8 1.4-1.1 2.2-1.1 1.2 0 1.8.8 1.8 2.4v4.2h-1.9v-4.3c0-.5-.2-.8-.6-.8-.4 0-.8.2-1.1.5v4.5h-2M58.6 14.6h-.9v-1.3h1l.3-1.8h1.5v1.8h1.4v1.3h-1.4v3.1c0 .3 0 .5.1.6.1.1.3.2.6.2.2 0 .4 0 .7-.1l.2 1.3c-.5.2-1 .2-1.4.2-1.4 0-2-.7-2-2.1v-3.2M64.8 17.1c0 .4.2.8.4 1 .2.2.5.3.9.3.2 0 .4 0 .7-.1.2-.1.4-.1.5-.2.1-.1.3-.1.5-.3l.7 1.2c-.3.2-.5.3-.7.4-.2.1-.4.2-.8.3-.3.1-.7.1-1.1.1-.9 0-1.7-.3-2.3-.9-.6-.6-.8-1.4-.8-2.4s.3-1.8.8-2.5c.5-.6 1.3-1 2.2-1 1 0 1.7.3 2.1 1 .5.6.7 1.5.7 2.5v.5l-3.8.1m0-1.1h2c0-1-.3-1.5-.9-1.5-.3 0-.5.1-.7.3-.3.3-.4.7-.4 1.2M72.7 19.9c-1 0-1.8-.3-2.3-.9-.5-.6-.8-1.4-.8-2.4s.3-1.8.8-2.4c.5-.6 1.3-1 2.3-1 .9 0 1.6.2 2.1.7l-.8 1.3c-.2-.2-.4-.3-.6-.3-.2-.1-.4-.1-.6-.1-.8 0-1.2.6-1.2 1.8 0 1.2.4 1.8 1.2 1.8.4 0 .8-.2 1.3-.5l.9 1.2c-.7.5-1.4.8-2.3.8M11.5 10.7c-1.6 2-2 2.9-2.7 4.6-.7-1.5-1.6-2.5-3.1-3.2-.3-.1-.4-.1-.6.2-.2.3-.1.5.2.8.6.8 1.3 1.5 1.8 2.3.6 1 1.2 2.7 1.5 3.1.2.3.6.5.8.5.9-.1.9-.6 1.1-1.4.3-1.3.7-2.7 2.4-4.3v-2.5h-1.4z"/><path d="M18.4 4.5v.6h.6v-.6h-.6zm0 .6h-1.2v.6h1.2v-.6zm-1.3.7h-.6V7h.6V5.8zm0 1.2v.6h.6V7h-.6zm.7 0h.6v-.6h-.6V7zm-.7.6h-.6v.6h-.6v-.6h-1.2v.6H14v.6h.6v.6H14v-.5h-.6v.6h-.6v.6h-.6v2.5h1.2V12h.6v-.6h.6v-.6H14v-.6h.6v.6h.6v-.6h.6v-.7h.6v-.6h.6V7.6zm-1.2 0h.6V7h-.6v.6zm0-.6v-.6h-.6V7h.6z"/></svg><svg id="timericon" viewBox="0 0 29 33" width="29" height="33" x="3241" y="2191" xmlns="http://www.w3.org/2000/svg"><style>.cyst0{fill:#231f20}</style><path class="cyst0" d="M14.5 32.3c-7.7 0-14-6.3-14-14s6.3-14 14-14 14 6.3 14 14-6.3 14-14 14zm0-25.9c-6.6 0-11.9 5.4-11.9 11.9 0 6.6 5.4 11.9 11.9 11.9s11.9-5.4 11.9-11.9S21.1 6.4 14.5 6.4z"/><path class="cyst0" d="M14.5 19.4c-.4 0-.7-.2-.9-.6l-4-8.2c-.2-.5 0-1.1.5-1.4.5-.2 1.1 0 1.4.5l4 8.2c.2.5 0 1.1-.5 1.4-.2 0-.4.1-.5.1z"/><path class="cyst0" d="M20.2 20.6H20l-5.7-1.3c-.6-.1-.9-.7-.8-1.2.1-.6.7-.9 1.2-.8l5.7 1.3c.6.1.9.7.8 1.2-.1.5-.5.8-1 .8zM13.5 2.3h2v3.1h-2z"/><path class="cyst0" d="M17.3 3.8h-5.5c-.8 0-1.5-.7-1.5-1.5S11 .8 11.8.8h5.5c.8 0 1.5.7 1.5 1.5s-.6 1.5-1.5 1.5zM23.3 9.1c-.4 0-.8-.1-1.1-.3L20 7.4c-.9-.6-1.2-1.9-.6-2.8.6-.9 1.9-1.2 2.8-.6l2.1 1.4c.9.6 1.2 1.9.6 2.8-.3.6-1 .9-1.6.9z"/><path class="cyst0" d="M23.3 9.1c-.4 0-.8-.1-1.1-.3L20 7.4c-.9-.6-1.2-1.9-.6-2.8.6-.9 1.9-1.2 2.8-.6l2.1 1.4c.9.6 1.2 1.9.6 2.8-.3.6-1 .9-1.6.9zM5.6 9.1c-.7 0-1.3-.3-1.7-.9-.7-.9-.4-2.2.5-2.8L6.5 4c.9-.6 2.2-.4 2.8.6.7.9.4 2.1-.5 2.8L6.7 8.8c-.4.2-.8.3-1.1.3z"/></svg><svg width="35" height="35" viewBox="0 0 35 35" id="twitter-social" x="3270" y="2224" xmlns="http://www.w3.org/2000/svg"><title>Icons/Social Media/Twitter</title><path d="M26.301 14.485c.257 5.709-4 12.074-11.537 12.074a11.49 11.49 0 0 1-6.222-1.824 8.159 8.159 0 0 0 6.01-1.681 4.062 4.062 0 0 1-3.792-2.819 4.064 4.064 0 0 0 1.833-.07c-1.952-.392-3.3-2.15-3.256-4.03a4.043 4.043 0 0 0 1.84.507 4.063 4.063 0 0 1-1.257-5.419 11.522 11.522 0 0 0 8.366 4.241c-.592-2.539 1.334-4.984 3.954-4.984 1.167 0 2.222.493 2.962 1.282a8.118 8.118 0 0 0 2.577-.985 4.067 4.067 0 0 1-1.784 2.245 8.115 8.115 0 0 0 2.331-.638 8.242 8.242 0 0 1-2.025 2.1" fill="#1A1A1A" fill-rule="evenodd"/></svg><svg width="35" height="35" viewBox="0 0 35 35" id="twitter-social-hover" x="3305" y="2259" xmlns="http://www.w3.org/2000/svg"><title>Icons/Social Media/hover/Twitter</title><path d="M26.301 14.485c.257 5.709-4 12.074-11.537 12.074a11.49 11.49 0 0 1-6.222-1.824 8.159 8.159 0 0 0 6.01-1.681 4.062 4.062 0 0 1-3.792-2.819 4.064 4.064 0 0 0 1.833-.07c-1.952-.392-3.3-2.15-3.256-4.03a4.043 4.043 0 0 0 1.84.507 4.063 4.063 0 0 1-1.257-5.419 11.522 11.522 0 0 0 8.366 4.241c-.592-2.539 1.334-4.984 3.954-4.984 1.167 0 2.222.493 2.962 1.282a8.118 8.118 0 0 0 2.577-.985 4.067 4.067 0 0 1-1.784 2.245 8.115 8.115 0 0 0 2.331-.638 8.242 8.242 0 0 1-2.025 2.1" fill="#888" fill-rule="evenodd"/></svg><svg id="visa" width="46" height="28" viewBox="0 0 46 28" x="3340" y="2294" xmlns="http://www.w3.org/2000/svg"><style>.dbst0{fill:#fff}.dbst1{fill:#f2f2f2}.dbst2{fill:#0066b2}.dbst3{fill:#f9a533}</style><path class="dbst0" d="M.5.5h45v27H.5z"/><path class="dbst1" d="M45 1v26H1V1h44m1-1H0v28h46V0z"/><path class="dbst2" d="M19.5 19.5h-2.9l1.8-11h2.9zM14.2 8.5L11.4 16l-.3-1.6-1-4.9c-.1-.6-.7-1.1-1.4-1H4.2v.1c1.1.3 2.1.7 3 1.3l2.5 9.6h3l4.6-11h-3.1zM36.9 19.5h2.7l-2.3-11H35c-.6 0-1.1.3-1.3.8l-4.3 10.2h3l.6-1.6h3.7l.2 1.6zm-3.2-3.9l1.5-4.1.9 4.1h-2.4zM29.5 11.1l.4-2.4c-.8-.3-1.7-.5-2.6-.5-1.4 0-4.8.6-4.8 3.6 0 2.8 4 2.9 4 4.4s-3.6 1.2-4.8.3l-.4 2.5c1 .4 2.1.6 3.3.6 2 0 4.9-1 4.9-3.8 0-2.9-4-3.1-4-4.4 0-1.1 2.8-1 4-.3z"/><path class="dbst3" d="M11.1 14.4l-1-4.9c-.1-.6-.7-1.1-1.4-1H4.2v.1c1.6.4 3 1.1 4.3 2.1 1.1 1 2.1 2.3 2.6 3.7z"/></svg></svg>